<svg width="117" height="109" viewBox="0 0 117 109" fill="none" xmlns="http://www.w3.org/2000/svg">
<mask id="path-1-outside-1_86_207" maskUnits="userSpaceOnUse" x="0" y="0" width="25" height="25" fill="black">
<rect fill="white" width="25" height="25"/>
<path d="M2 5.79747C2 3.70019 3.70018 2 5.79747 2H23.2658V23.2658H2V5.79747Z"/>
</mask>
<path d="M2 5.79747C2 3.70019 3.70018 2 5.79747 2H23.2658V23.2658H2V5.79747Z" fill="white"/>
<path d="M0.481013 5.79747C0.481013 2.86127 2.86127 0.481013 5.79747 0.481013H24.0253L22.5063 3.51899H5.79747C4.5391 3.51899 3.51899 4.5391 3.51899 5.79747L0.481013 5.79747ZM24.0253 24.0253H0.481013L3.51899 22.5063H22.5063L24.0253 24.0253ZM0.481013 24.0253V5.79747C0.481013 2.86127 2.86127 0.481013 5.79747 0.481013L5.79747 3.51899C4.5391 3.51899 3.51899 4.5391 3.51899 5.79747V22.5063L0.481013 24.0253ZM24.0253 0.481013V24.0253L22.5063 22.5063V3.51899L24.0253 0.481013Z" fill="black" mask="url(#path-1-outside-1_86_207)"/>
<mask id="path-3-outside-2_86_207" maskUnits="userSpaceOnUse" x="0" y="23.7849" width="25" height="24" fill="black">
<rect fill="white" y="23.7849" width="25" height="24"/>
<path d="M2 24.7849H23.2658V46.0507H2V24.7849Z"/>
</mask>
<path d="M2 24.7849H23.2658V46.0507H2V24.7849Z" fill="white"/>
<path d="M2 24.7849V24.0254H0.481013V24.7849H2ZM23.2658 24.7849H24.0253V24.0254H23.2658V24.7849ZM23.2658 46.0507V46.8102H24.0253V46.0507H23.2658ZM2 46.0507H0.481013V46.8102H2V46.0507ZM2 25.5444H23.2658V24.0254H2V25.5444ZM22.5063 24.7849V46.0507H24.0253V24.7849H22.5063ZM23.2658 45.2912H2V46.8102H23.2658V45.2912ZM3.51899 46.0507V24.7849H0.481013V46.0507H3.51899Z" fill="black" mask="url(#path-3-outside-2_86_207)"/>
<mask id="path-5-outside-3_86_207" maskUnits="userSpaceOnUse" x="0" y="46.5696" width="25" height="24" fill="black">
<rect fill="white" y="46.5696" width="25" height="24"/>
<path d="M2 47.5696H23.2658V68.8354H2V47.5696Z"/>
</mask>
<path d="M2 47.5696H23.2658V68.8354H2V47.5696Z" fill="white"/>
<path d="M2 47.5696V46.8101H0.481013V47.5696H2ZM23.2658 47.5696H24.0253V46.8101H23.2658V47.5696ZM23.2658 68.8354V69.5949H24.0253V68.8354H23.2658ZM2 68.8354H0.481013V69.5949H2V68.8354ZM2 48.3291H23.2658V46.8101H2V48.3291ZM22.5063 47.5696V68.8354H24.0253V47.5696H22.5063ZM23.2658 68.0759H2V69.5949H23.2658V68.0759ZM3.51899 68.8354V47.5696H0.481013V68.8354H3.51899Z" fill="black" mask="url(#path-5-outside-3_86_207)"/>
<mask id="path-7-outside-4_86_207" maskUnits="userSpaceOnUse" x="0" y="69.3545" width="25" height="24" fill="black">
<rect fill="white" y="69.3545" width="25" height="24"/>
<path d="M2 70.3545H23.2658V91.6203H5.79747C3.70019 91.6203 2 89.9201 2 87.8228V70.3545Z"/>
</mask>
<path d="M2 70.3545H23.2658V91.6203H5.79747C3.70019 91.6203 2 89.9201 2 87.8228V70.3545Z" fill="black"/>
<path d="M0.481013 69.595H24.0253L22.5063 71.114H3.51899L0.481013 69.595ZM24.0253 93.1393H5.79747C2.86127 93.1393 0.481013 90.759 0.481013 87.8228H3.51899C3.51899 89.0812 4.5391 90.1013 5.79747 90.1013H22.5063L24.0253 93.1393ZM5.79747 93.1393C2.86127 93.1393 0.481013 90.759 0.481013 87.8228V69.595L3.51899 71.114V87.8228C3.51899 89.0812 4.5391 90.1013 5.79747 90.1013L5.79747 93.1393ZM24.0253 69.595V93.1393L22.5063 90.1013V71.114L24.0253 69.595Z" fill="black" mask="url(#path-7-outside-4_86_207)"/>
<mask id="path-9-outside-5_86_207" maskUnits="userSpaceOnUse" x="23.7847" y="0" width="24" height="25" fill="black">
<rect fill="white" x="23.7847" width="24" height="25"/>
<path d="M24.7847 2H46.0505V23.2658H24.7847V2Z"/>
</mask>
<path d="M24.7847 2H46.0505V23.2658H24.7847V2Z" fill="white"/>
<path d="M24.7847 2V0.481013H24.0252V2H24.7847ZM46.0505 2H46.81V0.481013H46.0505V2ZM46.0505 23.2658V24.0253H46.81V23.2658H46.0505ZM24.7847 23.2658H24.0252V24.0253H24.7847V23.2658ZM24.7847 3.51899H46.0505V0.481013H24.7847V3.51899ZM45.291 2V23.2658H46.81V2H45.291ZM46.0505 22.5063H24.7847V24.0253H46.0505V22.5063ZM25.5442 23.2658V2H24.0252V23.2658H25.5442Z" fill="black" mask="url(#path-9-outside-5_86_207)"/>
<rect x="24.4049" y="24.4052" width="22.0253" height="22.0253" fill="black" stroke="black" stroke-width="0.759494"/>
<rect x="24.4049" y="47.1898" width="22.0253" height="22.0253" fill="white" stroke="black" stroke-width="0.759494"/>
<mask id="path-13-outside-6_86_207" maskUnits="userSpaceOnUse" x="23.7847" y="69.3545" width="24" height="24" fill="black">
<rect fill="white" x="23.7847" y="69.3545" width="24" height="24"/>
<path d="M24.7847 70.3545H46.0505V91.6203H24.7847V70.3545Z"/>
</mask>
<path d="M24.7847 70.3545H46.0505V91.6203H24.7847V70.3545Z" fill="white"/>
<path d="M24.7847 70.3545V69.595H24.0252V70.3545H24.7847ZM46.0505 70.3545H46.81V69.595H46.0505V70.3545ZM46.0505 91.6203V93.1393H46.81V91.6203H46.0505ZM24.7847 91.6203H24.0252V93.1393H24.7847V91.6203ZM24.7847 71.114H46.0505V69.595H24.7847V71.114ZM45.291 70.3545V91.6203H46.81V70.3545H45.291ZM46.0505 90.1013H24.7847V93.1393H46.0505V90.1013ZM25.5442 91.6203V70.3545H24.0252V91.6203H25.5442Z" fill="black" mask="url(#path-13-outside-6_86_207)"/>
<mask id="path-15-outside-7_86_207" maskUnits="userSpaceOnUse" x="46.5698" y="0" width="24" height="25" fill="black">
<rect fill="white" x="46.5698" width="24" height="25"/>
<path d="M47.5698 2H68.8356V23.2658H47.5698V2Z"/>
</mask>
<path d="M47.5698 2H68.8356V23.2658H47.5698V2Z" fill="white"/>
<path d="M47.5698 2V0.481013H46.8103V2H47.5698ZM68.8356 2H69.5951V0.481013H68.8356V2ZM68.8356 23.2658V24.0253H69.5951V23.2658H68.8356ZM47.5698 23.2658H46.8103V24.0253H47.5698V23.2658ZM47.5698 3.51899H68.8356V0.481013H47.5698V3.51899ZM68.0762 2V23.2658H69.5951V2H68.0762ZM68.8356 22.5063H47.5698V24.0253H68.8356V22.5063ZM48.3293 23.2658V2H46.8103V23.2658H48.3293Z" fill="black" mask="url(#path-15-outside-7_86_207)"/>
<rect x="47.1901" y="24.4052" width="22.0253" height="22.0253" fill="white" stroke="black" stroke-width="0.759494"/>
<rect x="47.1901" y="47.1898" width="22.0253" height="22.0253" fill="black" stroke="black" stroke-width="0.759494"/>
<mask id="path-19-outside-8_86_207" maskUnits="userSpaceOnUse" x="46.5698" y="69.3545" width="24" height="24" fill="black">
<rect fill="white" x="46.5698" y="69.3545" width="24" height="24"/>
<path d="M47.5698 70.3545H68.8356V91.6203H47.5698V70.3545Z"/>
</mask>
<path d="M47.5698 70.3545H68.8356V91.6203H47.5698V70.3545Z" fill="white"/>
<path d="M47.5698 70.3545V69.595H46.8103V70.3545H47.5698ZM68.8356 70.3545H69.5951V69.595H68.8356V70.3545ZM68.8356 91.6203V93.1393H69.5951V91.6203H68.8356ZM47.5698 91.6203H46.8103V93.1393H47.5698V91.6203ZM47.5698 71.114H68.8356V69.595H47.5698V71.114ZM68.0762 70.3545V91.6203H69.5951V70.3545H68.0762ZM68.8356 90.1013H47.5698V93.1393H68.8356V90.1013ZM48.3293 91.6203V70.3545H46.8103V91.6203H48.3293Z" fill="black" mask="url(#path-19-outside-8_86_207)"/>
<mask id="path-21-outside-9_86_207" maskUnits="userSpaceOnUse" x="69.3545" y="0" width="24" height="25" fill="black">
<rect fill="white" x="69.3545" width="24" height="25"/>
<path d="M70.3545 2H87.8228C89.9201 2 91.6203 3.70018 91.6203 5.79747V23.2658H70.3545V2Z"/>
</mask>
<path d="M70.3545 2H87.8228C89.9201 2 91.6203 3.70018 91.6203 5.79747V23.2658H70.3545V2Z" fill="black"/>
<path d="M69.595 0.481013H87.8228C90.759 0.481013 93.1393 2.86127 93.1393 5.79747L90.1013 5.79747C90.1013 4.5391 89.0812 3.51899 87.8228 3.51899H71.114L69.595 0.481013ZM93.1393 24.0253H69.595L71.114 22.5063H90.1013L93.1393 24.0253ZM69.595 24.0253V0.481013L71.114 3.51899V22.5063L69.595 24.0253ZM87.8228 0.481013C90.759 0.481013 93.1393 2.86127 93.1393 5.79747V24.0253L90.1013 22.5063V5.79747C90.1013 4.5391 89.0812 3.51899 87.8228 3.51899V0.481013Z" fill="black" mask="url(#path-21-outside-9_86_207)"/>
<mask id="path-23-outside-10_86_207" maskUnits="userSpaceOnUse" x="69.3545" y="23.7849" width="24" height="24" fill="black">
<rect fill="white" x="69.3545" y="23.7849" width="24" height="24"/>
<path d="M70.3545 24.7849H91.6203V46.0507H70.3545V24.7849Z"/>
</mask>
<path d="M70.3545 24.7849H91.6203V46.0507H70.3545V24.7849Z" fill="white"/>
<path d="M70.3545 24.7849V24.0254H69.595V24.7849H70.3545ZM91.6203 24.7849H93.1393V24.0254H91.6203V24.7849ZM91.6203 46.0507V46.8102H93.1393V46.0507H91.6203ZM70.3545 46.0507H69.595V46.8102H70.3545V46.0507ZM70.3545 25.5444H91.6203V24.0254H70.3545V25.5444ZM90.1013 24.7849V46.0507H93.1393V24.7849H90.1013ZM91.6203 45.2912H70.3545V46.8102H91.6203V45.2912ZM71.114 46.0507V24.7849H69.595V46.0507H71.114Z" fill="black" mask="url(#path-23-outside-10_86_207)"/>
<mask id="path-25-outside-11_86_207" maskUnits="userSpaceOnUse" x="69.3545" y="46.5696" width="24" height="24" fill="black">
<rect fill="white" x="69.3545" y="46.5696" width="24" height="24"/>
<path d="M70.3545 47.5696H91.6203V68.8354H70.3545V47.5696Z"/>
</mask>
<path d="M70.3545 47.5696H91.6203V68.8354H70.3545V47.5696Z" fill="white"/>
<path d="M70.3545 47.5696V46.8101H69.595V47.5696H70.3545ZM91.6203 47.5696H93.1393V46.8101H91.6203V47.5696ZM91.6203 68.8354V69.5949H93.1393V68.8354H91.6203ZM70.3545 68.8354H69.595V69.5949H70.3545V68.8354ZM70.3545 48.3291H91.6203V46.8101H70.3545V48.3291ZM90.1013 47.5696V68.8354H93.1393V47.5696H90.1013ZM91.6203 68.0759H70.3545V69.5949H91.6203V68.0759ZM71.114 68.8354V47.5696H69.595V68.8354H71.114Z" fill="black" mask="url(#path-25-outside-11_86_207)"/>
<mask id="path-27-outside-12_86_207" maskUnits="userSpaceOnUse" x="69.3545" y="69.3545" width="24" height="24" fill="black">
<rect fill="white" x="69.3545" y="69.3545" width="24" height="24"/>
<path d="M70.3545 70.3545H91.6203V87.8228C91.6203 89.9201 89.9201 91.6203 87.8228 91.6203H70.3545V70.3545Z"/>
</mask>
<path d="M70.3545 70.3545H91.6203V87.8228C91.6203 89.9201 89.9201 91.6203 87.8228 91.6203H70.3545V70.3545Z" fill="white"/>
<path d="M69.595 69.595H93.1393L90.1013 71.114H71.114L69.595 69.595ZM93.1393 87.8228C93.1393 90.759 90.759 93.1393 87.8228 93.1393H69.595L71.114 90.1013H87.8228C89.0812 90.1013 90.1013 89.0812 90.1013 87.8228H93.1393ZM69.595 93.1393V69.595L71.114 71.114V90.1013L69.595 93.1393ZM93.1393 69.595V87.8228C93.1393 90.759 90.759 93.1393 87.8228 93.1393V90.1013C89.0812 90.1013 90.1013 89.0812 90.1013 87.8228V71.114L93.1393 69.595Z" fill="black" mask="url(#path-27-outside-12_86_207)"/>
<path d="M79.3086 107.759H110.887C114.207 107.759 116.413 104.323 115.031 101.305L99.8379 68.133C99.6561 67.736 99.562 67.3045 99.562 66.8679V59.9409C99.562 59.4003 100 58.962 100.541 58.962H100.76C102.019 58.962 103.039 57.9419 103.039 56.6835C103.039 55.4252 102.019 54.4051 100.76 54.4051H89.4358C88.1774 54.4051 87.1573 55.4252 87.1573 56.6835C87.1573 57.9419 88.1774 58.962 89.4358 58.962H89.6552C90.1958 58.962 90.6341 59.4003 90.6341 59.9409V66.868C90.6341 67.3045 90.54 67.736 90.3582 68.133L75.1655 101.305C73.7831 104.323 75.9888 107.759 79.3086 107.759Z" fill="url(#paint0_linear_86_207)" stroke="black" stroke-width="1.51899"/>
<defs>
<linearGradient id="paint0_linear_86_207" x1="95.098" y1="38.4557" x2="95.098" y2="99.6676" gradientUnits="userSpaceOnUse">
<stop offset="0.695" stop-color="white"/>
<stop offset="1" stop-color="#65C3DC"/>
</linearGradient>
</defs>
</svg>
