<?xml version="1.0" standalone="no"?>
<!DOCTYPE svg PUBLIC "-//W3C//DTD SVG 20010904//EN"
 "http://www.w3.org/TR/2001/REC-SVG-20010904/DTD/svg10.dtd">
<svg version="1.0" xmlns="http://www.w3.org/2000/svg"
 width="2360.000000pt" height="803.000000pt" viewBox="0 0 2360.000000 803.000000"
 preserveAspectRatio="xMidYMid meet" >

<g transform="translate(0.000000,803.000000) scale(0.100000,-0.100000)"
fill="#000000" stroke="none">
<path d="M0 4015 l0 -4015 11800 0 11800 0 0 4015 0 4015 -11800 0 -11800 0 0
-4015z m5316 2843 c4 -7 22 -84 39 -173 24 -120 29 -163 20 -173 -11 -12 -79
-25 -447 -82 -375 -59 -789 -170 -1058 -285 -216 -92 -422 -226 -560 -365
-199 -199 -229 -369 -110 -617 94 -195 326 -445 765 -828 472 -412 658 -627
769 -892 177 -419 151 -777 -83 -1127 -127 -191 -408 -399 -796 -591 -327
-161 -609 -263 -1125 -406 -118 -33 -302 -87 -408 -119 -187 -58 -326 -89
-339 -77 -5 5 -83 321 -83 338 0 3 10 10 23 16 30 14 543 167 807 242 630 177
1046 359 1386 606 175 128 265 247 325 430 58 174 10 436 -120 655 -93 155
-295 365 -631 654 -102 88 -278 252 -391 365 -328 328 -456 520 -531 801 -31
115 -29 278 6 393 65 219 191 390 411 562 290 226 590 363 1095 499 238 65
382 95 616 130 93 14 203 32 244 40 96 18 167 19 176 4z m-315 -713 c11 -59
31 -376 26 -382 -3 -2 -27 -5 -53 -6 -53 -2 -51 -5 -71 103 -7 40 -11 45 -43
52 -19 4 -109 23 -200 43 -186 39 -258 59 -283 77 -16 12 -16 16 2 63 l19 50
53 -3 c29 -2 138 -25 242 -51 l190 -49 -7 68 c-3 37 -3 70 1 74 4 4 32 6 62 4
l56 -3 6 -40z m-1331 -542 c41 -8 183 -43 315 -78 449 -119 725 -185 770 -185
15 0 28 15 48 55 15 30 33 55 42 55 31 0 95 -33 95 -49 0 -20 -102 -230 -164
-338 -27 -46 -54 -83 -63 -83 -21 0 -73 32 -73 45 0 5 16 48 35 95 19 46 33
86 31 87 -14 14 -239 67 -866 203 -102 22 -225 52 -273 67 -99 30 -99 29 -62
116 18 43 5 42 165 10z m180 -738 c47 -8 171 -36 276 -62 l192 -47 32 27 c17
15 37 27 44 27 6 0 30 -18 51 -41 l40 -40 -21 -17 c-12 -9 -62 -51 -110 -93
-106 -90 -197 -159 -210 -159 -5 0 -25 13 -44 29 l-35 30 63 64 64 64 -114 28
c-147 35 -330 91 -349 107 -13 11 -14 21 -7 56 11 49 8 48 128 27z m5660
-1437 l475 -552 3 527 2 527 190 0 190 0 -3 -952 -2 -953 -50 -3 -50 -2 -470
525 -470 525 -3 -505 -2 -505 -190 0 -190 0 0 960 0 960 48 0 48 0 474 -552z
m7645 132 c202 -225 371 -410 376 -410 4 0 173 185 376 410 l368 411 55 -3 55
-3 3 -952 2 -953 -190 0 -190 0 -2 521 -3 521 -234 -246 c-128 -135 -237 -246
-240 -246 -4 0 -113 111 -242 246 l-234 247 -3 -522 -2 -521 -190 0 -190 0 0
955 0 955 58 0 59 0 368 -410z m-10883 386 c43 -8 108 -24 144 -36 62 -21 66
-24 61 -49 -3 -14 -13 -99 -23 -188 -13 -120 -22 -163 -31 -163 -8 0 -32 9
-54 21 -88 44 -257 61 -385 38 -252 -46 -428 -273 -428 -554 -1 -119 14 -184
62 -285 124 -255 432 -357 750 -248 l102 35 5 -31 c5 -34 45 -340 45 -350 0
-9 -130 -46 -220 -62 -100 -17 -279 -19 -376 -4 -370 59 -633 304 -740 690
-15 51 -18 103 -19 245 0 158 3 190 23 265 71 259 233 467 451 578 55 28 126
59 158 68 147 43 336 54 475 30z m5550 0 c43 -8 108 -24 144 -36 62 -21 66
-24 61 -49 -3 -14 -13 -99 -23 -188 -13 -120 -22 -163 -31 -163 -8 0 -32 9
-54 21 -88 44 -257 61 -385 38 -90 -16 -196 -71 -262 -137 -112 -110 -166
-248 -166 -422 0 -174 54 -312 166 -422 150 -148 398 -189 647 -106 l101 34 5
-31 c5 -33 45 -340 45 -349 0 -9 -130 -46 -220 -62 -100 -17 -279 -19 -376 -4
-370 59 -633 304 -740 690 -15 51 -18 103 -19 245 0 158 3 191 23 265 71 259
233 467 451 578 55 28 126 59 158 68 147 43 336 54 475 30z m9019 -12 c45 -8
117 -26 159 -40 l77 -24 -23 -176 c-13 -98 -25 -178 -27 -180 -1 -2 -33 8 -71
22 -145 52 -325 66 -394 30 -84 -44 -124 -153 -88 -240 22 -52 80 -92 218
-147 165 -66 285 -138 367 -219 107 -106 151 -208 151 -355 0 -266 -164 -473
-430 -542 -87 -22 -287 -22 -394 1 -96 21 -226 65 -287 97 l-45 24 22 188 c13
104 25 191 27 194 3 2 26 -10 53 -27 116 -73 339 -129 468 -116 158 16 242
127 188 248 -26 60 -70 91 -201 143 -265 105 -412 211 -481 350 -70 140 -65
324 12 483 39 80 147 194 225 235 120 64 303 84 474 51z m-13643 -936 l2 -938
-190 0 -190 0 0 940 0 940 188 -2 187 -3 3 -937z m1362 752 l0 -190 -280 0
-280 0 0 -185 0 -185 243 -2 242 -3 3 -187 2 -188 -245 0 -245 0 0 -185 0
-185 295 0 295 0 0 -190 0 -190 -485 0 -485 0 0 940 0 940 470 0 470 0 0 -190z
m4750 0 l0 -190 -280 0 -280 0 0 -185 0 -185 245 0 245 0 0 -190 0 -190 -245
0 -245 0 0 -185 0 -185 295 0 295 0 0 -190 0 -190 -485 0 -485 0 0 940 0 940
470 0 470 0 0 -190z m2938 -752 l2 -938 -190 0 -190 0 0 940 0 940 188 -2 187
-3 3 -937z m3502 752 l0 -190 -280 0 -280 0 0 -185 0 -185 245 0 245 0 0 -190
0 -190 -245 0 -245 0 0 -185 0 -185 295 0 295 0 0 -190 0 -190 -485 0 -485 0
0 940 0 940 470 0 470 0 0 -190z m-4160 -5 l0 -185 -235 0 -235 0 0 -732 c0
-403 0 -741 0 -750 0 -17 -16 -18 -185 -18 l-185 0 0 750 0 750 -235 0 -235 0
0 185 0 185 655 0 655 0 0 -185z m-12088 121 l38 -33 -45 -64 c-24 -35 -41
-67 -37 -70 4 -4 77 -25 162 -48 159 -41 280 -80 320 -101 19 -10 21 -17 16
-53 -4 -22 -9 -43 -11 -47 -8 -13 -208 28 -403 81 l-186 51 -36 -41 c-19 -23
-39 -41 -45 -41 -5 1 -28 16 -49 34 l-40 34 19 29 c41 63 242 303 254 303 3
-1 23 -16 43 -34z m-456 -618 c39 -20 45 -26 41 -48 -3 -14 -8 -41 -12 -61
l-7 -36 79 -21 c81 -22 313 -77 658 -158 212 -49 351 -89 360 -103 9 -15 -18
-113 -33 -119 -25 -9 -153 20 -432 98 -446 126 -620 171 -643 168 -18 -2 -25
-16 -42 -78 l-21 -75 -54 3 c-30 2 -58 7 -63 11 -12 11 103 441 118 441 3 0
25 -10 51 -22z m-66 -813 c11 -25 25 -47 32 -49 7 -2 67 -18 133 -35 66 -18
158 -43 204 -57 l84 -26 -7 -56 c-4 -31 -10 -60 -14 -64 -5 -5 -44 1 -88 13
-131 35 -256 61 -261 55 -3 -3 2 -32 11 -64 9 -32 16 -65 16 -74 0 -17 -99
-53 -111 -41 -19 20 -125 410 -114 421 4 4 52 16 88 21 4 0 16 -19 27 -44z"/>
</g>
</svg>
