<svg width="594" height="183" viewBox="0 0 594 183" fill="none" xmlns="http://www.w3.org/2000/svg">
<path d="M69.6957 57.81L71.0287 50.1379H68.8071L69.1329 48.3309H71.3546L72.0359 44.3912H74.0798L73.3689 48.3309H78.0492L77.7233 50.1379H73.0727L71.6804 57.8989C71.4138 59.4985 72.0655 60.476 73.5466 60.476C74.3464 60.476 74.9389 60.3575 75.7979 60.1205V61.9867C74.8204 62.283 74.1094 62.4311 73.0727 62.4311C70.1993 62.4311 69.2218 60.4464 69.6957 57.81ZM80.4902 53.8999L79.0387 62.1052H77.0244L80.2236 43.9468H82.2676L80.8161 52.0337H80.8457C81.8825 49.3381 83.8672 48.0051 86.2666 48.0051C89.8805 48.0051 91.0357 50.5526 90.5025 53.574L88.9918 62.1052H86.9775L88.429 53.8999C88.7844 51.856 88.2512 49.8713 85.4371 49.8713C82.8304 49.8713 80.9346 51.3524 80.4902 53.8999ZM99.3658 49.812C96.6998 49.812 94.6263 51.2931 93.8561 54.1665H103.098C103.424 51.382 102.269 49.812 99.3658 49.812ZM97.47 62.4311C93.1155 62.4311 90.8346 59.5873 91.664 54.8478C92.4046 50.5526 95.6927 48.0051 99.6324 48.0051C103.78 48.0051 105.646 50.6711 104.935 54.6108C104.876 54.907 104.787 55.381 104.668 55.8549H93.5302C93.2636 58.8468 94.7447 60.5945 97.6477 60.5945C100.343 60.5945 101.676 59.143 102.535 57.3361L104.253 57.9877C103.069 60.7426 100.788 62.4311 97.47 62.4311Z" fill="#1C1B1F"/>
<path d="M54.7427 74.5195C52.7548 72.9904 54.5897 70.085 56.7305 67.0268C62.5412 58.7695 56.4247 39.0438 33.182 39.0438C18.9611 39.0438 8.71601 47.3011 8.71601 61.6749C8.71601 77.119 20.6432 83.3884 32.4174 89.1991C51.9902 98.8326 60.5533 105.867 60.5533 122.075C60.5533 132.932 51.9902 148.223 33.4878 148.223C7.18688 148.223 0.305825 123.451 4.12864 111.83C5.81067 106.784 7.95145 104.643 9.63348 105.408C11.4684 106.172 11.3155 108.925 8.41018 113.818C0.152912 127.886 12.5388 147.153 33.4878 147.153C45.2621 147.153 55.5072 137.672 55.5072 121.158C55.5072 104.643 43.1213 99.2913 30.4296 92.869C18.9611 87.0583 3.97572 78.8011 3.97572 63.3569C3.97572 46.3836 19.8786 38.1263 33.3349 38.1263C57.1893 38.1263 65.5994 58.005 59.0242 72.2258C57.9538 74.5195 56.2718 75.7428 54.7427 74.5195ZM108.57 121.769C106.735 135.99 99.3955 147 86.7037 147C74.7766 147 67.4368 137.367 65.1431 125.592C64.0727 120.087 63.614 114.735 63.614 109.231C63.614 103.42 64.0727 97.7622 65.1431 91.9515C67.2839 80.1773 74.7766 70.5438 86.7037 70.5438C98.478 70.5438 105.818 80.1773 107.959 91.9515C108.264 93.0219 108.417 94.2452 108.57 95.4685C108.876 99.5971 103.83 99.5971 103.83 95.4685C103.677 92.7161 103.371 90.1166 102.912 87.3642C101.536 77.5778 94.961 71.1554 86.7037 71.1554C78.4465 71.1554 71.7183 77.5778 70.3421 87.3642C69.2717 94.7039 68.813 101.891 68.813 109.231C68.813 116.265 69.2717 123.146 70.3421 130.18C71.8712 139.966 78.4465 146.388 86.7037 146.388C98.7838 146.388 105.818 133.85 107.5 121.769H108.57ZM118.354 67.3326C116.366 67.3326 114.684 65.6506 114.684 63.6627C114.684 61.8278 116.366 60.1457 118.354 60.1457C120.342 60.1457 122.024 61.8278 122.024 63.6627C122.024 65.6506 120.342 67.3326 118.354 67.3326ZM120.954 146.388H125.388V147H111.626V146.388H116.061V71.1554H111.626V70.5438H120.954V146.388ZM128.429 109.231C128.429 103.42 128.887 97.7622 129.958 91.9515C132.251 80.1773 139.897 70.5438 152.283 70.5438C164.516 70.5438 172.009 80.1773 174.302 91.9515C175.22 96.386 175.678 100.668 175.831 105.408C175.831 106.019 175.373 106.478 174.761 106.478H133.78V109.231C133.78 116.265 134.239 123.146 135.31 130.18C136.992 139.966 143.72 146.388 152.283 146.388C160.846 146.388 167.421 139.966 169.103 130.18C169.715 126.204 170.174 122.381 170.327 118.558C170.327 114.277 175.373 114.277 175.373 118.711C175.067 121.005 174.761 123.299 174.302 125.592C171.856 137.367 164.516 147 152.283 147C139.897 147 132.404 137.367 129.958 125.592C128.887 120.087 128.429 114.735 128.429 109.231ZM133.78 105.867H170.632C170.479 99.4442 170.021 93.4806 169.103 87.3642C167.574 77.5778 160.846 71.1554 152.283 71.1554C143.72 71.1554 136.839 77.5778 135.31 87.3642C134.392 93.6336 133.933 99.7501 133.78 105.867ZM227.609 146.388H232.043V147H218.128V146.388H222.563V87.3642C222.563 77.5778 219.199 71.1554 206.354 71.1554C196.568 71.1554 188.463 77.5778 188.463 87.3642V146.388H192.898V147H178.83V146.388H183.264V71.1554H178.83V70.5438H188.463V78.8011C192.898 73.7549 199.473 70.5438 206.354 70.5438C221.187 70.5438 227.609 77.7307 227.609 91.9515V146.388ZM280.011 121.769C278.176 135.99 270.837 147 258.145 147C246.218 147 238.878 137.367 236.584 125.592C235.514 120.087 235.055 114.735 235.055 109.231C235.055 103.42 235.514 97.7622 236.584 91.9515C238.725 80.1773 246.218 70.5438 258.145 70.5438C269.919 70.5438 277.259 80.1773 279.4 91.9515C279.706 93.0219 279.858 94.2452 280.011 95.4685C280.317 99.5971 275.271 99.5971 275.271 95.4685C275.118 92.7161 274.812 90.1166 274.354 87.3642C272.977 77.5778 266.402 71.1554 258.145 71.1554C249.888 71.1554 243.159 77.5778 241.783 87.3642C240.713 94.7039 240.254 101.891 240.254 109.231C240.254 116.265 240.713 123.146 241.783 130.18C243.312 139.966 249.888 146.388 258.145 146.388C270.225 146.388 277.259 133.85 278.941 121.769H280.011ZM283.067 109.231C283.067 103.42 283.526 97.7622 284.596 91.9515C286.89 80.1773 294.536 70.5438 306.922 70.5438C319.155 70.5438 326.647 80.1773 328.941 91.9515C329.858 96.386 330.317 100.668 330.47 105.408C330.47 106.019 330.011 106.478 329.4 106.478H288.419V109.231C288.419 116.265 288.878 123.146 289.948 130.18C291.63 139.966 298.358 146.388 306.922 146.388C315.485 146.388 322.06 139.966 323.742 130.18C324.354 126.204 324.812 122.381 324.965 118.558C324.965 114.277 330.011 114.277 330.011 118.711C329.705 121.005 329.4 123.299 328.941 125.592C326.494 137.367 319.155 147 306.922 147C294.536 147 287.043 137.367 284.596 125.592C283.526 120.087 283.067 114.735 283.067 109.231ZM288.419 105.867H325.271C325.118 99.4442 324.659 93.4806 323.742 87.3642C322.213 77.5778 315.485 71.1554 306.922 71.1554C298.358 71.1554 291.477 77.5778 289.948 87.3642C289.031 93.6336 288.572 99.7501 288.419 105.867Z" fill="#1C1B1F"/>
<path d="M54.7427 74.5195L55.3673 73.7386L55.3599 73.7327L55.3524 73.7269L54.7427 74.5195ZM56.7305 67.0268L55.9127 66.4513L55.9113 66.4533L56.7305 67.0268ZM32.4174 89.1991L31.9749 90.0958L31.9758 90.0963L32.4174 89.1991ZM4.12864 111.83L3.17994 111.514L3.17871 111.518L4.12864 111.83ZM9.63348 105.408L9.21968 106.318L9.23417 106.325L9.24887 106.331L9.63348 105.408ZM8.41018 113.818L7.55032 113.307L7.54777 113.312L8.41018 113.818ZM30.4296 92.869L29.9776 93.761L29.9781 93.7613L30.4296 92.869ZM59.0242 72.2258L59.9304 72.6487L59.9319 72.6455L59.0242 72.2258ZM55.3524 73.7269C55.0589 73.5011 54.9414 73.2661 54.9041 72.9966C54.8614 72.6877 54.9173 72.2619 55.1269 71.6916C55.5524 70.5344 56.466 69.1484 57.5497 67.6003L55.9113 66.4533C54.8542 67.9634 53.78 69.5592 53.2498 71.0015C52.9816 71.731 52.8177 72.5094 52.923 73.2708C53.0339 74.0717 53.4325 74.7733 54.1329 75.3121L55.3524 73.7269ZM57.5483 67.6023C63.9516 58.5029 57.0063 38.0438 33.182 38.0438V40.0438C55.8431 40.0438 61.1308 59.0361 55.9127 66.4513L57.5483 67.6023ZM33.182 38.0438C25.8837 38.0438 19.5121 40.1637 14.9514 44.2221C10.3763 48.2934 7.71601 54.2348 7.71601 61.6749H9.71601C9.71601 54.7412 12.1783 49.3671 16.281 45.7162C20.3981 42.0525 26.2594 40.0438 33.182 40.0438V38.0438ZM7.71601 61.6749C7.71601 69.7033 10.835 75.3852 15.4632 79.7751C20.0438 84.1198 26.1074 87.2002 31.9749 90.0958L32.86 88.3024C26.9532 85.3873 21.1661 82.4277 16.8396 78.324C12.5606 74.2654 9.71601 69.0906 9.71601 61.6749H7.71601ZM31.9758 90.0963C41.7601 94.912 48.6402 99.0102 53.0891 103.848C57.4813 108.625 59.5533 114.181 59.5533 122.075H61.5533C61.5533 113.76 59.3438 107.696 54.5613 102.495C49.8354 97.3552 42.6476 93.1197 32.859 88.3019L31.9758 90.0963ZM59.5533 122.075C59.5533 132.527 51.3015 147.223 33.4878 147.223V149.223C52.6789 149.223 61.5533 133.337 61.5533 122.075H59.5533ZM33.4878 147.223C20.7073 147.223 12.7308 141.231 8.37215 133.875C3.97261 126.45 3.26706 117.65 5.07856 112.143L3.17871 111.518C1.16741 117.632 1.99097 127.029 6.6515 134.894C11.3529 142.829 19.9674 149.223 33.4878 149.223V147.223ZM5.07732 112.146C5.89885 109.682 6.80111 108.031 7.627 107.106C8.46982 106.162 8.97655 106.208 9.21968 106.318L10.0473 104.497C8.60838 103.843 7.20371 104.577 6.13512 105.774C5.04961 106.99 4.04046 108.932 3.17995 111.514L5.07732 112.146ZM9.24887 106.331C9.48683 106.43 9.62458 106.569 9.71264 106.766C9.81229 106.988 9.87906 107.357 9.80696 107.942C9.66054 109.13 8.98111 110.898 7.55033 113.307L9.27004 114.329C10.7446 111.845 11.5943 109.79 11.7919 108.187C11.8918 107.377 11.8344 106.609 11.5374 105.947C11.2289 105.259 10.6976 104.768 10.0181 104.485L9.24887 106.331ZM7.54777 113.312C3.18678 120.742 4.31071 129.501 9.18212 136.341C14.0569 143.186 22.6973 148.153 33.4878 148.153V146.153C23.3294 146.153 15.3023 141.487 10.8112 135.181C6.31671 128.87 5.37631 120.962 9.2726 114.324L7.54777 113.312ZM33.4878 148.153C45.9015 148.153 56.5072 138.133 56.5072 121.158H54.5072C54.5072 137.211 44.6226 146.153 33.4878 146.153V148.153ZM56.5072 121.158C56.5072 112.594 53.2728 106.864 48.3959 102.485C43.5895 98.1688 37.1684 95.1583 30.8811 91.9767L29.9781 93.7613C36.3825 97.002 42.5002 99.8786 47.0597 103.973C51.5486 108.004 54.5072 113.207 54.5072 121.158H56.5072ZM30.8815 91.977C25.1429 89.0694 18.6434 85.6054 13.5756 80.9864C8.52853 76.3863 4.97572 70.71 4.97572 63.3569H2.97572C2.97572 71.4479 6.91563 77.6223 12.2284 82.4646C17.5204 87.288 24.2479 90.858 29.9776 93.761L30.8815 91.977ZM4.97572 63.3569C4.97572 55.2263 8.76806 49.2024 14.204 45.1805C19.6672 41.1385 26.7913 39.1263 33.3349 39.1263V37.1263C26.4222 37.1263 18.8667 39.2429 13.0144 43.5727C7.13483 47.9229 2.97572 54.5142 2.97572 63.3569H4.97572ZM33.3349 39.1263C44.9613 39.1263 52.6875 43.9542 56.7452 50.3773C60.8232 56.8327 61.2644 64.9981 58.1165 71.8061L59.9319 72.6455C63.3593 65.2327 62.8829 56.3484 58.4361 49.3092C53.9689 42.2378 45.5629 37.1263 33.3349 37.1263V39.1263ZM58.118 71.8029C57.6251 72.8591 57.048 73.5349 56.5475 73.8302C56.3111 73.9696 56.1179 74.0099 55.9614 74.0013C55.809 73.9929 55.6115 73.934 55.3673 73.7386L54.118 75.3004C54.6384 75.7167 55.2245 75.9636 55.8511 75.9982C56.4734 76.0326 57.0543 75.8531 57.5634 75.5529C58.5538 74.9689 59.3529 73.8862 59.9304 72.6487L58.118 71.8029ZM108.57 121.769L109.562 121.897L109.708 120.769H108.57V121.769ZM65.1431 125.592L64.1615 125.783L64.1615 125.783L65.1431 125.592ZM65.1431 91.9515L66.1265 92.1327L66.127 92.1304L65.1431 91.9515ZM107.959 91.9515L106.975 92.1304L106.984 92.1789L106.997 92.2262L107.959 91.9515ZM108.57 95.4685L109.567 95.3946L109.566 95.3695L109.562 95.3445L108.57 95.4685ZM103.83 95.4685H104.83V95.4408L104.828 95.413L103.83 95.4685ZM102.912 87.3642L101.922 87.5034L101.924 87.516L101.926 87.5285L102.912 87.3642ZM70.3421 87.3642L71.3317 87.5085L71.3324 87.5034L70.3421 87.3642ZM70.3421 130.18L69.3535 130.33L69.3541 130.334L70.3421 130.18ZM107.5 121.769V120.769H106.629L106.509 121.632L107.5 121.769ZM107.578 121.641C106.676 128.632 104.431 134.746 100.93 139.09C97.4511 143.406 92.7202 146 86.7037 146V148C93.379 148 98.6638 145.089 102.487 140.345C106.288 135.629 108.629 129.128 109.562 121.897L107.578 121.641ZM86.7037 146C75.4641 146 68.3737 136.946 66.1246 125.401L64.1615 125.783C66.4998 137.787 74.089 148 86.7037 148V146ZM66.1247 125.401C65.0677 119.965 64.614 114.678 64.614 109.231H62.614C62.614 114.793 63.0777 120.209 64.1615 125.783L66.1247 125.401ZM64.614 109.231C64.614 103.474 65.0683 97.8777 66.1265 92.1327L64.1596 91.7704C63.0771 97.6467 62.614 103.366 62.614 109.231H64.614ZM66.127 92.1304C68.2222 80.6066 75.4572 71.5438 86.7037 71.5438V69.5438C74.0959 69.5438 66.3455 79.748 64.1592 91.7726L66.127 92.1304ZM86.7037 71.5438C97.7858 71.5438 104.877 80.591 106.975 92.1304L108.942 91.7726C106.759 79.7635 99.1702 69.5438 86.7037 69.5438V71.5438ZM106.997 92.2262C107.278 93.2083 107.423 94.3505 107.578 95.5925L109.562 95.3445C109.412 94.1399 109.251 92.8355 108.92 91.6768L106.997 92.2262ZM107.573 95.5424C107.634 96.3707 107.422 96.8725 107.19 97.1507C106.957 97.4306 106.64 97.565 106.315 97.565C105.733 97.565 104.83 97.0742 104.83 95.4685H102.83C102.83 97.9915 104.45 99.565 106.315 99.565C107.212 99.565 108.1 99.1833 108.727 98.4311C109.355 97.6771 109.659 96.6307 109.567 95.3946L107.573 95.5424ZM104.828 95.413C104.673 92.6196 104.363 89.9835 103.899 87.1998L101.926 87.5285C102.38 90.2496 102.681 92.8125 102.831 95.524L104.828 95.413ZM103.903 87.2249C102.474 77.0655 95.5724 70.1554 86.7037 70.1554V72.1554C94.3496 72.1554 100.598 78.09 101.922 87.5034L103.903 87.2249ZM86.7037 70.1554C77.846 70.1554 70.7823 77.0531 69.3518 87.2249L71.3324 87.5034C72.6544 78.1024 79.0469 72.1554 86.7037 72.1554V70.1554ZM69.3526 87.2198C68.2745 94.6127 67.813 101.848 67.813 109.231H69.813C69.813 101.933 70.269 94.7952 71.3316 87.5085L69.3526 87.2198ZM67.813 109.231C67.813 116.309 68.2747 123.241 69.3535 130.33L71.3307 130.029C70.2687 123.05 69.813 116.22 69.813 109.231H67.813ZM69.3541 130.334C70.9393 140.479 77.8348 147.388 86.7037 147.388V145.388C79.0581 145.388 72.8031 139.453 71.3301 130.025L69.3541 130.334ZM86.7037 147.388C93.1372 147.388 98.1864 144.035 101.801 139.208C105.405 134.397 107.632 128.072 108.49 121.907L106.509 121.632C105.686 127.547 103.555 133.531 100.201 138.009C96.8582 142.472 92.3504 145.388 86.7037 145.388V147.388ZM107.5 122.769H108.57V120.769H107.5V122.769ZM120.954 146.388H119.954V147.388H120.954V146.388ZM125.388 146.388H126.388V145.388H125.388V146.388ZM125.388 147V148H126.388V147H125.388ZM111.626 147H110.626V148H111.626V147ZM111.626 146.388V145.388H110.626V146.388H111.626ZM116.061 146.388V147.388H117.061V146.388H116.061ZM116.061 71.1554H117.061V70.1554H116.061V71.1554ZM111.626 71.1554H110.626V72.1554H111.626V71.1554ZM111.626 70.5438V69.5438H110.626V70.5438H111.626ZM120.954 70.5438H121.954V69.5438H120.954V70.5438ZM118.354 66.3326C116.919 66.3326 115.684 65.0983 115.684 63.6627H113.684C113.684 66.2029 115.814 68.3326 118.354 68.3326V66.3326ZM115.684 63.6627C115.684 62.4072 116.891 61.1457 118.354 61.1457V59.1457C115.842 59.1457 113.684 61.2484 113.684 63.6627H115.684ZM118.354 61.1457C119.817 61.1457 121.024 62.4072 121.024 63.6627H123.024C123.024 61.2484 120.867 59.1457 118.354 59.1457V61.1457ZM121.024 63.6627C121.024 65.0983 119.79 66.3326 118.354 66.3326V68.3326C120.894 68.3326 123.024 66.2029 123.024 63.6627H121.024ZM120.954 147.388H125.388V145.388H120.954V147.388ZM124.388 146.388V147H126.388V146.388H124.388ZM125.388 146H111.626V148H125.388V146ZM112.626 147V146.388H110.626V147H112.626ZM111.626 147.388H116.061V145.388H111.626V147.388ZM117.061 146.388V71.1554H115.061V146.388H117.061ZM116.061 70.1554H111.626V72.1554H116.061V70.1554ZM112.626 71.1554V70.5438H110.626V71.1554H112.626ZM111.626 71.5438H120.954V69.5438H111.626V71.5438ZM119.954 70.5438V146.388H121.954V70.5438H119.954ZM129.958 91.9515L128.976 91.7603L128.974 91.7704L129.958 91.9515ZM174.302 91.9515L173.321 92.1427L173.323 92.1541L174.302 91.9515ZM175.831 105.408H176.831V105.392L176.831 105.376L175.831 105.408ZM133.78 106.478V105.478H132.78V106.478H133.78ZM135.31 130.18L134.321 130.33L134.322 130.34L134.324 130.349L135.31 130.18ZM169.103 130.18L170.089 130.349L170.09 130.34L170.092 130.332L169.103 130.18ZM170.327 118.558L171.326 118.598L171.327 118.578V118.558H170.327ZM175.373 118.711L176.364 118.843L176.373 118.778V118.711H175.373ZM174.302 125.592L175.281 125.796L175.283 125.788L174.302 125.592ZM129.958 125.592L128.976 125.783L128.979 125.796L129.958 125.592ZM133.78 105.867L132.781 105.842L132.755 106.867H133.78V105.867ZM170.632 105.867V106.867H171.656L171.632 105.843L170.632 105.867ZM169.103 87.3642L170.092 87.2158L170.091 87.2098L169.103 87.3642ZM135.31 87.3642L134.322 87.2098L134.32 87.2194L135.31 87.3642ZM129.429 109.231C129.429 103.474 129.883 97.8777 130.941 92.1327L128.974 91.7704C127.892 97.6467 127.429 103.366 127.429 109.231H129.429ZM130.939 92.1427C133.181 80.6324 140.558 71.5438 152.283 71.5438V69.5438C139.236 69.5438 131.321 79.7221 128.976 91.7603L130.939 92.1427ZM152.283 71.5438C163.843 71.5438 171.076 80.6176 173.321 92.1427L175.284 91.7603C172.942 79.7369 165.188 69.5438 152.283 69.5438V71.5438ZM173.323 92.1541C174.227 96.5243 174.681 100.748 174.832 105.44L176.831 105.376C176.676 100.587 176.212 96.2477 175.282 91.7489L173.323 92.1541ZM174.831 105.408C174.831 105.435 174.827 105.45 174.824 105.456C174.821 105.462 174.819 105.464 174.818 105.465C174.818 105.466 174.815 105.468 174.809 105.471C174.803 105.473 174.788 105.478 174.761 105.478V107.478C175.925 107.478 176.831 106.572 176.831 105.408H174.831ZM174.761 105.478H133.78V107.478H174.761V105.478ZM132.78 106.478V109.231H134.78V106.478H132.78ZM132.78 109.231C132.78 116.309 133.242 123.241 134.321 130.33L136.298 130.029C135.236 123.05 134.78 116.22 134.78 109.231H132.78ZM134.324 130.349C136.07 140.505 143.129 147.388 152.283 147.388V145.388C144.311 145.388 137.914 139.427 136.295 130.01L134.324 130.349ZM152.283 147.388C161.447 147.388 168.345 140.493 170.089 130.349L168.118 130.01C166.497 139.439 160.245 145.388 152.283 145.388V147.388ZM170.092 130.332C170.706 126.337 171.171 122.473 171.326 118.598L169.327 118.518C169.176 122.289 168.724 126.071 168.115 130.028L170.092 130.332ZM171.327 118.558C171.327 116.845 172.254 116.357 172.834 116.366C173.417 116.375 174.373 116.898 174.373 118.711H176.373C176.373 116.09 174.805 114.396 172.865 114.366C170.922 114.337 169.327 115.99 169.327 118.558H171.327ZM174.381 118.579C174.075 120.878 173.773 123.139 173.322 125.396L175.283 125.788C175.749 123.458 176.059 121.132 176.364 118.843L174.381 118.579ZM173.323 125.389C170.924 136.935 163.837 146 152.283 146V148C165.195 148 172.787 137.798 175.281 125.796L173.323 125.389ZM152.283 146C140.565 146 133.333 136.92 130.937 125.389L128.979 125.796C131.476 137.813 139.229 148 152.283 148V146ZM130.939 125.401C129.882 119.965 129.429 114.678 129.429 109.231H127.429C127.429 114.793 127.892 120.209 128.976 125.783L130.939 125.401ZM133.78 106.867H170.632V104.867H133.78V106.867ZM171.632 105.843C171.478 99.3861 171.017 93.3802 170.092 87.2158L168.114 87.5125C169.025 93.5811 169.481 99.5024 169.633 105.89L171.632 105.843ZM170.091 87.2098C168.502 77.0398 161.436 70.1554 152.283 70.1554V72.1554C160.256 72.1554 166.646 78.1157 168.115 87.5185L170.091 87.2098ZM152.283 70.1554C143.14 70.1554 135.912 77.028 134.322 87.2098L136.298 87.5185C137.765 78.1275 144.3 72.1554 152.283 72.1554V70.1554ZM134.32 87.2194C133.396 93.5343 132.935 99.6913 132.781 105.842L134.78 105.892C134.932 99.8088 135.388 93.7328 136.299 87.5089L134.32 87.2194ZM227.609 146.388H226.609V147.388H227.609V146.388ZM232.043 146.388H233.043V145.388H232.043V146.388ZM232.043 147V148H233.043V147H232.043ZM218.128 147H217.128V148H218.128V147ZM218.128 146.388V145.388H217.128V146.388H218.128ZM222.563 146.388V147.388H223.563V146.388H222.563ZM188.463 146.388H187.463V147.388H188.463V146.388ZM192.898 146.388H193.898V145.388H192.898V146.388ZM192.898 147V148H193.898V147H192.898ZM178.83 147H177.83V148H178.83V147ZM178.83 146.388V145.388H177.83V146.388H178.83ZM183.264 146.388V147.388H184.264V146.388H183.264ZM183.264 71.1554H184.264V70.1554H183.264V71.1554ZM178.83 71.1554H177.83V72.1554H178.83V71.1554ZM178.83 70.5438V69.5438H177.83V70.5438H178.83ZM188.463 70.5438H189.463V69.5438H188.463V70.5438ZM188.463 78.8011H187.463V81.4539L189.215 79.4612L188.463 78.8011ZM227.609 147.388H232.043V145.388H227.609V147.388ZM231.043 146.388V147H233.043V146.388H231.043ZM232.043 146H218.128V148H232.043V146ZM219.128 147V146.388H217.128V147H219.128ZM218.128 147.388H222.563V145.388H218.128V147.388ZM223.563 146.388V87.3642H221.563V146.388H223.563ZM223.563 87.3642C223.563 82.3943 222.717 78.0404 220.032 74.9357C217.32 71.8001 212.927 70.1554 206.354 70.1554V72.1554C212.626 72.1554 216.338 73.722 218.519 76.244C220.727 78.7972 221.563 82.5476 221.563 87.3642H223.563ZM206.354 70.1554C196.15 70.1554 187.463 76.8998 187.463 87.3642H189.463C189.463 78.2557 196.985 72.1554 206.354 72.1554V70.1554ZM187.463 87.3642V146.388H189.463V87.3642H187.463ZM188.463 147.388H192.898V145.388H188.463V147.388ZM191.898 146.388V147H193.898V146.388H191.898ZM192.898 146H178.83V148H192.898V146ZM179.83 147V146.388H177.83V147H179.83ZM178.83 147.388H183.264V145.388H178.83V147.388ZM184.264 146.388V71.1554H182.264V146.388H184.264ZM183.264 70.1554H178.83V72.1554H183.264V70.1554ZM179.83 71.1554V70.5438H177.83V71.1554H179.83ZM178.83 71.5438H188.463V69.5438H178.83V71.5438ZM187.463 70.5438V78.8011H189.463V70.5438H187.463ZM189.215 79.4612C193.472 74.6161 199.78 71.5438 206.354 71.5438V69.5438C199.166 69.5438 192.323 72.8938 187.712 78.1409L189.215 79.4612ZM206.354 71.5438C213.625 71.5438 218.626 73.3052 221.825 76.6103C225.03 79.9219 226.609 84.9705 226.609 91.9515H228.609C228.609 84.7117 226.976 79.0564 223.262 75.2193C219.542 71.3758 213.916 69.5438 206.354 69.5438V71.5438ZM226.609 91.9515V146.388H228.609V91.9515H226.609ZM280.011 121.769L281.003 121.897L281.149 120.769H280.011V121.769ZM236.584 125.592L235.603 125.783L235.603 125.783L236.584 125.592ZM236.584 91.9515L237.568 92.1327L237.568 92.1304L236.584 91.9515ZM279.4 91.9515L278.416 92.1304L278.425 92.1789L278.438 92.2262L279.4 91.9515ZM280.011 95.4685L281.009 95.3946L281.007 95.3695L281.004 95.3445L280.011 95.4685ZM275.271 95.4685H276.271V95.4408L276.27 95.413L275.271 95.4685ZM274.354 87.3642L273.363 87.5034L273.365 87.516L273.367 87.5285L274.354 87.3642ZM241.783 87.3642L242.773 87.5085L242.773 87.5034L241.783 87.3642ZM241.783 130.18L240.795 130.33L240.795 130.334L241.783 130.18ZM278.941 121.769V120.769H278.071L277.95 121.632L278.941 121.769ZM279.02 121.641C278.118 128.632 275.872 134.746 272.371 139.09C268.892 143.406 264.161 146 258.145 146V148C264.82 148 270.105 145.089 273.928 140.345C277.729 135.629 280.07 129.128 281.003 121.897L279.02 121.641ZM258.145 146C246.905 146 239.815 136.946 237.566 125.401L235.603 125.783C237.941 137.787 245.53 148 258.145 148V146ZM237.566 125.401C236.509 119.965 236.055 114.678 236.055 109.231H234.055C234.055 114.793 234.519 120.209 235.603 125.783L237.566 125.401ZM236.055 109.231C236.055 103.474 236.509 97.8777 237.568 92.1327L235.601 91.7704C234.518 97.6467 234.055 103.366 234.055 109.231H236.055ZM237.568 92.1304C239.663 80.6066 246.898 71.5438 258.145 71.5438V69.5438C245.537 69.5438 237.787 79.748 235.6 91.7726L237.568 92.1304ZM258.145 71.5438C269.227 71.5438 276.318 80.591 278.416 92.1304L280.384 91.7726C278.2 79.7635 270.611 69.5438 258.145 69.5438V71.5438ZM278.438 92.2262C278.719 93.2083 278.864 94.3505 279.019 95.5925L281.004 95.3445C280.853 94.1399 280.692 92.8355 280.361 91.6768L278.438 92.2262ZM279.014 95.5424C279.075 96.3707 278.863 96.8725 278.631 97.1507C278.398 97.4306 278.081 97.565 277.756 97.565C277.174 97.565 276.271 97.0742 276.271 95.4685H274.271C274.271 97.9915 275.891 99.565 277.756 99.565C278.654 99.565 279.541 99.1833 280.168 98.4311C280.796 97.6771 281.1 96.6307 281.009 95.3946L279.014 95.5424ZM276.27 95.413C276.114 92.6196 275.804 89.9835 275.34 87.1998L273.367 87.5285C273.821 90.2496 274.122 92.8125 274.273 95.524L276.27 95.413ZM275.344 87.2249C273.915 77.0655 267.013 70.1554 258.145 70.1554V72.1554C265.791 72.1554 272.04 78.09 273.363 87.5034L275.344 87.2249ZM258.145 70.1554C249.287 70.1554 242.223 77.0531 240.793 87.2249L242.773 87.5034C244.095 78.1024 250.488 72.1554 258.145 72.1554V70.1554ZM240.794 87.2198C239.716 94.6127 239.254 101.848 239.254 109.231H241.254C241.254 101.933 241.71 94.7952 242.773 87.5085L240.794 87.2198ZM239.254 109.231C239.254 116.309 239.716 123.241 240.795 130.33L242.772 130.029C241.71 123.05 241.254 116.22 241.254 109.231H239.254ZM240.795 130.334C242.38 140.479 249.276 147.388 258.145 147.388V145.388C250.499 145.388 244.244 139.453 242.771 130.025L240.795 130.334ZM258.145 147.388C264.578 147.388 269.628 144.035 273.243 139.208C276.846 134.397 279.073 128.072 279.931 121.907L277.95 121.632C277.127 127.547 274.996 133.531 271.642 138.009C268.299 142.472 263.792 145.388 258.145 145.388V147.388ZM278.941 122.769H280.011V120.769H278.941V122.769ZM284.596 91.9515L283.615 91.7603L283.613 91.7704L284.596 91.9515ZM328.941 91.9515L327.959 92.1427L327.962 92.1541L328.941 91.9515ZM330.47 105.408H331.47V105.392L331.47 105.376L330.47 105.408ZM288.419 106.478V105.478H287.419V106.478H288.419ZM289.948 130.18L288.96 130.33L288.961 130.34L288.963 130.349L289.948 130.18ZM323.742 130.18L324.727 130.349L324.729 130.34L324.73 130.332L323.742 130.18ZM324.965 118.558L325.964 118.598L325.965 118.578V118.558H324.965ZM330.011 118.711L331.003 118.843L331.011 118.778V118.711H330.011ZM328.941 125.592L329.92 125.796L329.922 125.788L328.941 125.592ZM284.596 125.592L283.615 125.783L283.617 125.796L284.596 125.592ZM288.419 105.867L287.419 105.842L287.394 106.867H288.419V105.867ZM325.271 105.867V106.867H326.295L326.271 105.843L325.271 105.867ZM323.742 87.3642L324.731 87.2158L324.73 87.2098L323.742 87.3642ZM289.948 87.3642L288.96 87.2098L288.959 87.2194L289.948 87.3642ZM284.067 109.231C284.067 103.474 284.521 97.8777 285.58 92.1327L283.613 91.7704C282.53 97.6467 282.067 103.366 282.067 109.231H284.067ZM285.578 92.1427C287.82 80.6324 295.197 71.5438 306.922 71.5438V69.5438C293.875 69.5438 285.96 79.7221 283.615 91.7603L285.578 92.1427ZM306.922 71.5438C318.482 71.5438 325.714 80.6176 327.959 92.1427L329.922 91.7603C327.58 79.7369 319.827 69.5438 306.922 69.5438V71.5438ZM327.962 92.1541C328.866 96.5243 329.319 100.748 329.471 105.44L331.47 105.376C331.315 100.587 330.851 96.2477 329.92 91.7489L327.962 92.1541ZM329.47 105.408C329.47 105.435 329.465 105.45 329.463 105.456C329.46 105.462 329.458 105.464 329.457 105.465C329.456 105.466 329.454 105.468 329.448 105.471C329.442 105.473 329.427 105.478 329.4 105.478V107.478C330.564 107.478 331.47 106.572 331.47 105.408H329.47ZM329.4 105.478H288.419V107.478H329.4V105.478ZM287.419 106.478V109.231H289.419V106.478H287.419ZM287.419 109.231C287.419 116.309 287.881 123.241 288.96 130.33L290.937 130.029C289.875 123.05 289.419 116.22 289.419 109.231H287.419ZM288.963 130.349C290.708 140.505 297.767 147.388 306.922 147.388V145.388C298.949 145.388 292.552 139.427 290.934 130.01L288.963 130.349ZM306.922 147.388C316.086 147.388 322.984 140.493 324.727 130.349L322.756 130.01C321.136 139.439 314.883 145.388 306.922 145.388V147.388ZM324.73 130.332C325.345 126.337 325.809 122.473 325.964 118.598L323.966 118.518C323.815 122.289 323.362 126.071 322.754 130.028L324.73 130.332ZM325.965 118.558C325.965 116.845 326.893 116.357 327.473 116.366C328.056 116.375 329.011 116.898 329.011 118.711H331.011C331.011 116.09 329.443 114.396 327.503 114.366C325.561 114.337 323.965 115.99 323.965 118.558H325.965ZM329.02 118.579C328.714 120.878 328.412 123.139 327.96 125.396L329.922 125.788C330.388 123.458 330.697 121.132 331.003 118.843L329.02 118.579ZM327.962 125.389C325.563 136.935 318.475 146 306.922 146V148C319.834 148 327.426 137.798 329.92 125.796L327.962 125.389ZM306.922 146C295.204 146 287.972 136.92 285.575 125.389L283.617 125.796C286.114 137.813 293.867 148 306.922 148V146ZM285.578 125.401C284.521 119.965 284.067 114.678 284.067 109.231H282.067C282.067 114.793 282.531 120.209 283.615 125.783L285.578 125.401ZM288.419 106.867H325.271V104.867H288.419V106.867ZM326.271 105.843C326.117 99.3861 325.655 93.3802 324.731 87.2158L322.753 87.5125C323.663 93.5811 324.119 99.5024 324.271 105.89L326.271 105.843ZM324.73 87.2098C323.141 77.0398 316.075 70.1554 306.922 70.1554V72.1554C314.894 72.1554 321.285 78.1157 322.754 87.5185L324.73 87.2098ZM306.922 70.1554C297.779 70.1554 290.551 77.028 288.96 87.2098L290.936 87.5185C292.404 78.1275 298.938 72.1554 306.922 72.1554V70.1554ZM288.959 87.2194C288.035 93.5343 287.573 99.6913 287.419 105.842L289.419 105.892C289.571 99.8088 290.027 93.7328 290.938 87.5089L288.959 87.2194Z" fill="#1C1B1F"/>
<path d="M385.698 39.9613V40.42C385.698 40.5729 385.698 40.8788 385.698 40.8788V61.5219H384.781C384.781 45.1603 378.358 40.8788 362.608 40.8788H349.458V146.388H353.892V147H339.824V146.388H344.259V40.8788H331.261C315.511 40.8788 309.089 45.1603 309.089 61.5219H308.172V39.9613H385.698ZM395.465 67.3326C393.478 67.3326 391.796 65.6506 391.796 63.6627C391.796 61.8278 393.478 60.1457 395.465 60.1457C397.453 60.1457 399.135 61.8278 399.135 63.6627C399.135 65.6506 397.453 67.3326 395.465 67.3326ZM398.065 146.388H402.499V147H388.737V146.388H393.172V71.1554H388.737V70.5438H398.065V146.388ZM494.993 146.388V147H481.078V146.388H485.513V87.3642C485.513 77.5778 479.091 71.1554 469.304 71.1554C459.518 71.1554 452.943 77.5778 452.943 87.3642V146.388H457.224V147H443.309V146.388H447.744V87.3642C447.744 77.5778 441.321 71.1554 431.535 71.1554C421.748 71.1554 415.173 77.5778 415.173 87.3642V146.388H419.608V147H405.54V146.388H409.974V71.1554H405.54V70.5438H415.173V78.0365C419.149 73.4491 424.96 70.5438 431.535 70.5438C439.945 70.5438 447.132 74.2137 450.649 81.4006C454.319 74.9782 461.2 70.5438 469.304 70.5438C481.078 70.5438 490.559 77.7307 490.559 91.9515V146.388H494.993ZM498.052 109.231C498.052 103.42 498.51 97.7622 499.581 91.9515C501.875 80.1773 509.52 70.5438 521.906 70.5438C534.139 70.5438 541.632 80.1773 543.925 91.9515C544.843 96.386 545.302 100.668 545.455 105.408C545.455 106.019 544.996 106.478 544.384 106.478H503.404V109.231C503.404 116.265 503.862 123.146 504.933 130.18C506.615 139.966 513.343 146.388 521.906 146.388C530.469 146.388 537.044 139.966 538.726 130.18C539.338 126.204 539.797 122.381 539.95 118.558C539.95 114.277 544.996 114.277 544.996 118.711C544.69 121.005 544.384 123.299 543.925 125.592C541.479 137.367 534.139 147 521.906 147C509.52 147 502.027 137.367 499.581 125.592C498.51 120.087 498.052 114.735 498.052 109.231ZM503.404 105.867H540.256C540.103 99.4442 539.644 93.4806 538.726 87.3642C537.197 77.5778 530.469 71.1554 521.906 71.1554C513.343 71.1554 506.462 77.5778 504.933 87.3642C504.015 93.6336 503.557 99.7501 503.404 105.867ZM583.164 92.869C580.871 91.7986 581.329 89.6578 583.164 85.6821C585.917 79.7185 579.036 69.9321 569.861 69.9321C561.298 69.9321 552.735 75.7428 552.735 85.9879C552.735 96.8447 561.451 101.279 569.861 105.561C583.623 112.595 590.045 117.488 590.045 128.498C590.045 139.354 583.164 148.07 570.167 148.07C551.358 148.07 546.924 130.485 549.829 122.228C552.276 115.194 558.698 118.1 554.875 124.828C548.453 135.99 558.239 147.459 570.167 147.459C578.424 147.459 585.611 140.425 585.611 128.651C585.611 118.1 577.048 113.206 568.026 108.619C559.922 104.49 548.912 99.4442 548.912 87.2112C548.912 75.1312 560.38 69.3205 570.014 69.3205C578.118 69.3205 588.822 76.0486 588.822 86.7525C588.822 90.7282 586.222 94.2452 583.164 92.869Z" fill="#185768"/>
<path d="M385.698 39.9613H386.698V38.9613H385.698V39.9613ZM385.698 61.5219V62.5219H386.698V61.5219H385.698ZM384.781 61.5219H383.781V62.5219H384.781V61.5219ZM349.458 40.8788V39.8788H348.458V40.8788H349.458ZM349.458 146.388H348.458V147.388H349.458V146.388ZM353.892 146.388H354.892V145.388H353.892V146.388ZM353.892 147V148H354.892V147H353.892ZM339.824 147H338.824V148H339.824V147ZM339.824 146.388V145.388H338.824V146.388H339.824ZM344.259 146.388V147.388H345.259V146.388H344.259ZM344.259 40.8788H345.259V39.8788H344.259V40.8788ZM309.089 61.5219V62.5219H310.089V61.5219H309.089ZM308.172 61.5219H307.172V62.5219H308.172V61.5219ZM308.172 39.9613V38.9613H307.172V39.9613H308.172ZM384.698 39.9613V40.42H386.698V39.9613H384.698ZM384.698 40.42C384.698 40.4203 384.698 40.4206 384.698 40.4209C384.698 40.4212 384.698 40.4215 384.698 40.4218C384.698 40.4221 384.698 40.4224 384.698 40.4227C384.698 40.423 384.698 40.4233 384.698 40.4236C384.698 40.4239 384.698 40.4243 384.698 40.4246C384.698 40.4249 384.698 40.4252 384.698 40.4255C384.698 40.4258 384.698 40.4261 384.698 40.4264C384.698 40.4267 384.698 40.427 384.698 40.4273C384.698 40.4276 384.698 40.4279 384.698 40.4282C384.698 40.4285 384.698 40.4289 384.698 40.4292C384.698 40.4295 384.698 40.4298 384.698 40.4301C384.698 40.4304 384.698 40.4307 384.698 40.431C384.698 40.4313 384.698 40.4317 384.698 40.432C384.698 40.4323 384.698 40.4326 384.698 40.4329C384.698 40.4332 384.698 40.4335 384.698 40.4339C384.698 40.4342 384.698 40.4345 384.698 40.4348C384.698 40.4351 384.698 40.4354 384.698 40.4358C384.698 40.4361 384.698 40.4364 384.698 40.4367C384.698 40.437 384.698 40.4373 384.698 40.4377C384.698 40.438 384.698 40.4383 384.698 40.4386C384.698 40.4389 384.698 40.4393 384.698 40.4396C384.698 40.4399 384.698 40.4402 384.698 40.4406C384.698 40.4409 384.698 40.4412 384.698 40.4415C384.698 40.4418 384.698 40.4422 384.698 40.4425C384.698 40.4428 384.698 40.4431 384.698 40.4435C384.698 40.4438 384.698 40.4441 384.698 40.4445C384.698 40.4448 384.698 40.4451 384.698 40.4454C384.698 40.4458 384.698 40.4461 384.698 40.4464C384.698 40.4467 384.698 40.4471 384.698 40.4474C384.698 40.4477 384.698 40.4481 384.698 40.4484C384.698 40.4487 384.698 40.4491 384.698 40.4494C384.698 40.4497 384.698 40.4501 384.698 40.4504C384.698 40.4507 384.698 40.451 384.698 40.4514C384.698 40.4517 384.698 40.452 384.698 40.4524C384.698 40.4527 384.698 40.4531 384.698 40.4534C384.698 40.4537 384.698 40.4541 384.698 40.4544C384.698 40.4547 384.698 40.4551 384.698 40.4554C384.698 40.4557 384.698 40.4561 384.698 40.4564C384.698 40.4568 384.698 40.4571 384.698 40.4574C384.698 40.4578 384.698 40.4581 384.698 40.4585C384.698 40.4588 384.698 40.4591 384.698 40.4595C384.698 40.4598 384.698 40.4602 384.698 40.4605C384.698 40.4608 384.698 40.4612 384.698 40.4615C384.698 40.4619 384.698 40.4622 384.698 40.4626C384.698 40.4629 384.698 40.4632 384.698 40.4636C384.698 40.4639 384.698 40.4643 384.698 40.4646C384.698 40.465 384.698 40.4653 384.698 40.4657C384.698 40.466 384.698 40.4663 384.698 40.4667C384.698 40.467 384.698 40.4674 384.698 40.4677C384.698 40.4681 384.698 40.4684 384.698 40.4688C384.698 40.4691 384.698 40.4695 384.698 40.4698C384.698 40.4702 384.698 40.4705 384.698 40.4709C384.698 40.4712 384.698 40.4716 384.698 40.4719C384.698 40.4723 384.698 40.4726 384.698 40.473C384.698 40.4733 384.698 40.4737 384.698 40.474C384.698 40.4744 384.698 40.4747 384.698 40.4751C384.698 40.4754 384.698 40.4758 384.698 40.4762C384.698 40.4765 384.698 40.4769 384.698 40.4772C384.698 40.4776 384.698 40.4779 384.698 40.4783C384.698 40.4786 384.698 40.479 384.698 40.4794C384.698 40.4797 384.698 40.4801 384.698 40.4804C384.698 40.4808 384.698 40.4811 384.698 40.4815C384.698 40.4819 384.698 40.4822 384.698 40.4826C384.698 40.4829 384.698 40.4833 384.698 40.4836C384.698 40.484 384.698 40.4844 384.698 40.4847C384.698 40.4851 384.698 40.4854 384.698 40.4858C384.698 40.4862 384.698 40.4865 384.698 40.4869C384.698 40.4873 384.698 40.4876 384.698 40.488C384.698 40.4883 384.698 40.4887 384.698 40.4891C384.698 40.4894 384.698 40.4898 384.698 40.4902C384.698 40.4905 384.698 40.4909 384.698 40.4912C384.698 40.4916 384.698 40.492 384.698 40.4923C384.698 40.4927 384.698 40.4931 384.698 40.4934C384.698 40.4938 384.698 40.4942 384.698 40.4945C384.698 40.4949 384.698 40.4953 384.698 40.4956C384.698 40.496 384.698 40.4964 384.698 40.4967C384.698 40.4971 384.698 40.4975 384.698 40.4978C384.698 40.4982 384.698 40.4986 384.698 40.4989C384.698 40.4993 384.698 40.4997 384.698 40.5C384.698 40.5004 384.698 40.5008 384.698 40.5012C384.698 40.5015 384.698 40.5019 384.698 40.5023C384.698 40.5026 384.698 40.503 384.698 40.5034C384.698 40.5038 384.698 40.5041 384.698 40.5045C384.698 40.5049 384.698 40.5052 384.698 40.5056C384.698 40.506 384.698 40.5064 384.698 40.5067C384.698 40.5071 384.698 40.5075 384.698 40.5079C384.698 40.5082 384.698 40.5086 384.698 40.509C384.698 40.5094 384.698 40.5097 384.698 40.5101C384.698 40.5105 384.698 40.5108 384.698 40.5112C384.698 40.5116 384.698 40.512 384.698 40.5124C384.698 40.5127 384.698 40.5131 384.698 40.5135C384.698 40.5139 384.698 40.5142 384.698 40.5146C384.698 40.515 384.698 40.5154 384.698 40.5157C384.698 40.5161 384.698 40.5165 384.698 40.5169C384.698 40.5173 384.698 40.5176 384.698 40.518C384.698 40.5184 384.698 40.5188 384.698 40.5191C384.698 40.5195 384.698 40.5199 384.698 40.5203C384.698 40.5207 384.698 40.521 384.698 40.5214C384.698 40.5218 384.698 40.5222 384.698 40.5226C384.698 40.5229 384.698 40.5233 384.698 40.5237C384.698 40.5241 384.698 40.5245 384.698 40.5249C384.698 40.5252 384.698 40.5256 384.698 40.526C384.698 40.5264 384.698 40.5268 384.698 40.5271C384.698 40.5275 384.698 40.5279 384.698 40.5283C384.698 40.5287 384.698 40.5291 384.698 40.5294C384.698 40.5298 384.698 40.5302 384.698 40.5306C384.698 40.531 384.698 40.5314 384.698 40.5317C384.698 40.5321 384.698 40.5325 384.698 40.5329C384.698 40.5333 384.698 40.5337 384.698 40.5341C384.698 40.5344 384.698 40.5348 384.698 40.5352C384.698 40.5356 384.698 40.536 384.698 40.5364C384.698 40.5368 384.698 40.5371 384.698 40.5375C384.698 40.5379 384.698 40.5383 384.698 40.5387C384.698 40.5391 384.698 40.5395 384.698 40.5399C384.698 40.5402 384.698 40.5406 384.698 40.541C384.698 40.5414 384.698 40.5418 384.698 40.5422C384.698 40.5426 384.698 40.543 384.698 40.5433C384.698 40.5437 384.698 40.5441 384.698 40.5445C384.698 40.5449 384.698 40.5453 384.698 40.5457C384.698 40.5461 384.698 40.5465 384.698 40.5468C384.698 40.5472 384.698 40.5476 384.698 40.548C384.698 40.5484 384.698 40.5488 384.698 40.5492C384.698 40.5496 384.698 40.55 384.698 40.5504C384.698 40.5507 384.698 40.5511 384.698 40.5515C384.698 40.5519 384.698 40.5523 384.698 40.5527C384.698 40.5531 384.698 40.5535 384.698 40.5539C384.698 40.5543 384.698 40.5547 384.698 40.555C384.698 40.5554 384.698 40.5558 384.698 40.5562C384.698 40.5566 384.698 40.557 384.698 40.5574C384.698 40.5578 384.698 40.5582 384.698 40.5586C384.698 40.559 384.698 40.5594 384.698 40.5598C384.698 40.5601 384.698 40.5605 384.698 40.5609C384.698 40.5613 384.698 40.5617 384.698 40.5621C384.698 40.5625 384.698 40.5629 384.698 40.5633C384.698 40.5637 384.698 40.5641 384.698 40.5645C384.698 40.5649 384.698 40.5653 384.698 40.5657C384.698 40.566 384.698 40.5664 384.698 40.5668C384.698 40.5672 384.698 40.5676 384.698 40.568C384.698 40.5684 384.698 40.5688 384.698 40.5692C384.698 40.5696 384.698 40.57 384.698 40.5704C384.698 40.5708 384.698 40.5712 384.698 40.5716C384.698 40.572 384.698 40.5724 384.698 40.5728C384.698 40.5732 384.698 40.5736 384.698 40.5739C384.698 40.5743 384.698 40.5747 384.698 40.5751C384.698 40.5755 384.698 40.5759 384.698 40.5763C384.698 40.5767 384.698 40.5771 384.698 40.5775C384.698 40.5779 384.698 40.5783 384.698 40.5787C384.698 40.5791 384.698 40.5795 384.698 40.5799C384.698 40.5803 384.698 40.5807 384.698 40.5811C384.698 40.5815 384.698 40.5819 384.698 40.5823C384.698 40.5827 384.698 40.5831 384.698 40.5835C384.698 40.5839 384.698 40.5843 384.698 40.5846C384.698 40.585 384.698 40.5854 384.698 40.5858C384.698 40.5862 384.698 40.5866 384.698 40.587C384.698 40.5874 384.698 40.5878 384.698 40.5882C384.698 40.5886 384.698 40.589 384.698 40.5894C384.698 40.5898 384.698 40.5902 384.698 40.5906C384.698 40.591 384.698 40.5914 384.698 40.5918C384.698 40.5922 384.698 40.5926 384.698 40.593C384.698 40.5934 384.698 40.5938 384.698 40.5942C384.698 40.5946 384.698 40.595 384.698 40.5954C384.698 40.5958 384.698 40.5962 384.698 40.5966C384.698 40.597 384.698 40.5974 384.698 40.5978C384.698 40.5982 384.698 40.5986 384.698 40.599C384.698 40.5994 384.698 40.5998 384.698 40.6002C384.698 40.6006 384.698 40.601 384.698 40.6014C384.698 40.6017 384.698 40.6021 384.698 40.6025C384.698 40.6029 384.698 40.6033 384.698 40.6037C384.698 40.6041 384.698 40.6045 384.698 40.6049C384.698 40.6053 384.698 40.6057 384.698 40.6061C384.698 40.6065 384.698 40.6069 384.698 40.6073C384.698 40.6077 384.698 40.6081 384.698 40.6085C384.698 40.6089 384.698 40.6093 384.698 40.6097C384.698 40.6101 384.698 40.6105 384.698 40.6109C384.698 40.6113 384.698 40.6117 384.698 40.6121C384.698 40.6125 384.698 40.6129 384.698 40.6133C384.698 40.6137 384.698 40.6141 384.698 40.6145C384.698 40.6149 384.698 40.6153 384.698 40.6157C384.698 40.6161 384.698 40.6165 384.698 40.6169C384.698 40.6173 384.698 40.6177 384.698 40.6181C384.698 40.6185 384.698 40.6189 384.698 40.6193C384.698 40.6197 384.698 40.6201 384.698 40.6205C384.698 40.6209 384.698 40.6213 384.698 40.6217C384.698 40.6221 384.698 40.6224 384.698 40.6228C384.698 40.6232 384.698 40.6236 384.698 40.624C384.698 40.6244 384.698 40.6248 384.698 40.6252C384.698 40.6256 384.698 40.626 384.698 40.6264C384.698 40.6268 384.698 40.6272 384.698 40.6276C384.698 40.628 384.698 40.6284 384.698 40.6288C384.698 40.6292 384.698 40.6296 384.698 40.63C384.698 40.6304 384.698 40.6308 384.698 40.6312C384.698 40.6316 384.698 40.632 384.698 40.6324C384.698 40.6328 384.698 40.6332 384.698 40.6336C384.698 40.634 384.698 40.6344 384.698 40.6348C384.698 40.6352 384.698 40.6355 384.698 40.6359C384.698 40.6363 384.698 40.6367 384.698 40.6371C384.698 40.6375 384.698 40.6379 384.698 40.6383C384.698 40.6387 384.698 40.6391 384.698 40.6395C384.698 40.6399 384.698 40.6403 384.698 40.6407C384.698 40.6411 384.698 40.6415 384.698 40.6419C384.698 40.6423 384.698 40.6427 384.698 40.6431C384.698 40.6435 384.698 40.6439 384.698 40.6443C384.698 40.6446 384.698 40.645 384.698 40.6454C384.698 40.6458 384.698 40.6462 384.698 40.6466C384.698 40.647 384.698 40.6474 384.698 40.6478C384.698 40.6482 384.698 40.6486 384.698 40.649C384.698 40.6494 384.698 40.6498 384.698 40.6502C384.698 40.6506 384.698 40.651 384.698 40.6513C384.698 40.6517 384.698 40.6521 384.698 40.6525C384.698 40.6529 384.698 40.6533 384.698 40.6537C384.698 40.6541 384.698 40.6545 384.698 40.6549C384.698 40.6553 384.698 40.6557 384.698 40.6561C384.698 40.6565 384.698 40.6568 384.698 40.6572C384.698 40.6576 384.698 40.658 384.698 40.6584C384.698 40.6588 384.698 40.6592 384.698 40.6596C384.698 40.66 384.698 40.6604 384.698 40.6608C384.698 40.6612 384.698 40.6615 384.698 40.6619C384.698 40.6623 384.698 40.6627 384.698 40.6631C384.698 40.6635 384.698 40.6639 384.698 40.6643C384.698 40.6647 384.698 40.6651 384.698 40.6655C384.698 40.6658 384.698 40.6662 384.698 40.6666C384.698 40.667 384.698 40.6674 384.698 40.6678C384.698 40.6682 384.698 40.6686 384.698 40.669C384.698 40.6693 384.698 40.6697 384.698 40.6701C384.698 40.6705 384.698 40.6709 384.698 40.6713C384.698 40.6717 384.698 40.6721 384.698 40.6724C384.698 40.6728 384.698 40.6732 384.698 40.6736C384.698 40.674 384.698 40.6744 384.698 40.6748C384.698 40.6752 384.698 40.6755 384.698 40.6759C384.698 40.6763 384.698 40.6767 384.698 40.6771C384.698 40.6775 384.698 40.6779 384.698 40.6783C384.698 40.6786 384.698 40.679 384.698 40.6794C384.698 40.6798 384.698 40.6802 384.698 40.6806C384.698 40.6809 384.698 40.6813 384.698 40.6817C384.698 40.6821 384.698 40.6825 384.698 40.6829C384.698 40.6833 384.698 40.6836 384.698 40.684C384.698 40.6844 384.698 40.6848 384.698 40.6852C384.698 40.6856 384.698 40.6859 384.698 40.6863C384.698 40.6867 384.698 40.6871 384.698 40.6875C384.698 40.6879 384.698 40.6882 384.698 40.6886C384.698 40.689 384.698 40.6894 384.698 40.6898C384.698 40.6901 384.698 40.6905 384.698 40.6909C384.698 40.6913 384.698 40.6917 384.698 40.692C384.698 40.6924 384.698 40.6928 384.698 40.6932C384.698 40.6936 384.698 40.6939 384.698 40.6943C384.698 40.6947 384.698 40.6951 384.698 40.6955C384.698 40.6958 384.698 40.6962 384.698 40.6966C384.698 40.697 384.698 40.6974 384.698 40.6977C384.698 40.6981 384.698 40.6985 384.698 40.6989C384.698 40.6992 384.698 40.6996 384.698 40.7C384.698 40.7004 384.698 40.7007 384.698 40.7011C384.698 40.7015 384.698 40.7019 384.698 40.7023C384.698 40.7026 384.698 40.703 384.698 40.7034C384.698 40.7038 384.698 40.7041 384.698 40.7045C384.698 40.7049 384.698 40.7052 384.698 40.7056C384.698 40.706 384.698 40.7064 384.698 40.7067C384.698 40.7071 384.698 40.7075 384.698 40.7079C384.698 40.7082 384.698 40.7086 384.698 40.709C384.698 40.7094 384.698 40.7097 384.698 40.7101C384.698 40.7105 384.698 40.7108 384.698 40.7112C384.698 40.7116 384.698 40.712 384.698 40.7123C384.698 40.7127 384.698 40.7131 384.698 40.7134C384.698 40.7138 384.698 40.7142 384.698 40.7145C384.698 40.7149 384.698 40.7153 384.698 40.7156C384.698 40.716 384.698 40.7164 384.698 40.7168C384.698 40.7171 384.698 40.7175 384.698 40.7179C384.698 40.7182 384.698 40.7186 384.698 40.719C384.698 40.7193 384.698 40.7197 384.698 40.7201C384.698 40.7204 384.698 40.7208 384.698 40.7211C384.698 40.7215 384.698 40.7219 384.698 40.7222C384.698 40.7226 384.698 40.723 384.698 40.7233C384.698 40.7237 384.698 40.7241 384.698 40.7244C384.698 40.7248 384.698 40.7252 384.698 40.7255C384.698 40.7259 384.698 40.7262 384.698 40.7266C384.698 40.727 384.698 40.7273 384.698 40.7277C384.698 40.728 384.698 40.7284 384.698 40.7288C384.698 40.7291 384.698 40.7295 384.698 40.7298C384.698 40.7302 384.698 40.7306 384.698 40.7309C384.698 40.7313 384.698 40.7316 384.698 40.732C384.698 40.7324 384.698 40.7327 384.698 40.7331C384.698 40.7334 384.698 40.7338 384.698 40.7341C384.698 40.7345 384.698 40.7349 384.698 40.7352C384.698 40.7356 384.698 40.7359 384.698 40.7363C384.698 40.7366 384.698 40.737 384.698 40.7373C384.698 40.7377 384.698 40.7381 384.698 40.7384C384.698 40.7388 384.698 40.7391 384.698 40.7395C384.698 40.7398 384.698 40.7402 384.698 40.7405C384.698 40.7409 384.698 40.7412 384.698 40.7416C384.698 40.7419 384.698 40.7423 384.698 40.7426C384.698 40.743 384.698 40.7433 384.698 40.7437C384.698 40.744 384.698 40.7444 384.698 40.7447C384.698 40.7451 384.698 40.7454 384.698 40.7458C384.698 40.7461 384.698 40.7465 384.698 40.7468C384.698 40.7472 384.698 40.7475 384.698 40.7479C384.698 40.7482 384.698 40.7485 384.698 40.7489C384.698 40.7492 384.698 40.7496 384.698 40.7499C384.698 40.7503 384.698 40.7506 384.698 40.751C384.698 40.7513 384.698 40.7516 384.698 40.752C384.698 40.7523 384.698 40.7527 384.698 40.753C384.698 40.7534 384.698 40.7537 384.698 40.754C384.698 40.7544 384.698 40.7547 384.698 40.7551C384.698 40.7554 384.698 40.7557 384.698 40.7561C384.698 40.7564 384.698 40.7568 384.698 40.7571C384.698 40.7574 384.698 40.7578 384.698 40.7581C384.698 40.7584 384.698 40.7588 384.698 40.7591C384.698 40.7595 384.698 40.7598 384.698 40.7601C384.698 40.7605 384.698 40.7608 384.698 40.7611C384.698 40.7615 384.698 40.7618 384.698 40.7621C384.698 40.7625 384.698 40.7628 384.698 40.7631C384.698 40.7635 384.698 40.7638 384.698 40.7641C384.698 40.7645 384.698 40.7648 384.698 40.7651C384.698 40.7655 384.698 40.7658 384.698 40.7661C384.698 40.7664 384.698 40.7668 384.698 40.7671C384.698 40.7674 384.698 40.7678 384.698 40.7681C384.698 40.7684 384.698 40.7687 384.698 40.7691C384.698 40.7694 384.698 40.7697 384.698 40.7701C384.698 40.7704 384.698 40.7707 384.698 40.771C384.698 40.7714 384.698 40.7717 384.698 40.772C384.698 40.7723 384.698 40.7727 384.698 40.773C384.698 40.7733 384.698 40.7736 384.698 40.7739C384.698 40.7743 384.698 40.7746 384.698 40.7749C384.698 40.7752 384.698 40.7755 384.698 40.7759C384.698 40.7762 384.698 40.7765 384.698 40.7768C384.698 40.7771 384.698 40.7775 384.698 40.7778C384.698 40.7781 384.698 40.7784 384.698 40.7787C384.698 40.7791 384.698 40.7794 384.698 40.7797C384.698 40.78 384.698 40.7803 384.698 40.7806C384.698 40.7809 384.698 40.7813 384.698 40.7816C384.698 40.7819 384.698 40.7822 384.698 40.7825C384.698 40.7828 384.698 40.7831 384.698 40.7834C384.698 40.7838 384.698 40.7841 384.698 40.7844C384.698 40.7847 384.698 40.785 384.698 40.7853C384.698 40.7856 384.698 40.7859 384.698 40.7862C384.698 40.7865 384.698 40.7868 384.698 40.7872C384.698 40.7875 384.698 40.7878 384.698 40.7881C384.698 40.7884 384.698 40.7887 384.698 40.789C384.698 40.7893 384.698 40.7896 384.698 40.7899C384.698 40.7902 384.698 40.7905 384.698 40.7908C384.698 40.7911 384.698 40.7914 384.698 40.7917C384.698 40.792 384.698 40.7923 384.698 40.7926C384.698 40.7929 384.698 40.7932 384.698 40.7935C384.698 40.7938 384.698 40.7941 384.698 40.7944C384.698 40.7947 384.698 40.795 384.698 40.7953C384.698 40.7956 384.698 40.7959 384.698 40.7962C384.698 40.7965 384.698 40.7968 384.698 40.7971C384.698 40.7974 384.698 40.7977 384.698 40.798C384.698 40.7983 384.698 40.7985 384.698 40.7988C384.698 40.7991 384.698 40.7994 384.698 40.7997C384.698 40.8 384.698 40.8003 384.698 40.8006C384.698 40.8009 384.698 40.8012 384.698 40.8015C384.698 40.8017 384.698 40.802 384.698 40.8023C384.698 40.8026 384.698 40.8029 384.698 40.8032C384.698 40.8035 384.698 40.8037 384.698 40.804C384.698 40.8043 384.698 40.8046 384.698 40.8049C384.698 40.8052 384.698 40.8054 384.698 40.8057C384.698 40.806 384.698 40.8063 384.698 40.8066C384.698 40.8069 384.698 40.8071 384.698 40.8074C384.698 40.8077 384.698 40.808 384.698 40.8083C384.698 40.8085 384.698 40.8088 384.698 40.8091C384.698 40.8094 384.698 40.8096 384.698 40.8099C384.698 40.8102 384.698 40.8105 384.698 40.8107C384.698 40.811 384.698 40.8113 384.698 40.8116C384.698 40.8118 384.698 40.8121 384.698 40.8124C384.698 40.8126 384.698 40.8129 384.698 40.8132C384.698 40.8135 384.698 40.8137 384.698 40.814C384.698 40.8143 384.698 40.8145 384.698 40.8148C384.698 40.8151 384.698 40.8153 384.698 40.8156C384.698 40.8159 384.698 40.8161 384.698 40.8164C384.698 40.8167 384.698 40.8169 384.698 40.8172C384.698 40.8175 384.698 40.8177 384.698 40.818C384.698 40.8182 384.698 40.8185 384.698 40.8188C384.698 40.819 384.698 40.8193 384.698 40.8196C384.698 40.8198 384.698 40.8201 384.698 40.8203C384.698 40.8206 384.698 40.8208 384.698 40.8211C384.698 40.8214 384.698 40.8216 384.698 40.8219C384.698 40.8221 384.698 40.8224 384.698 40.8226C384.698 40.8229 384.698 40.8231 384.698 40.8234C384.698 40.8236 384.698 40.8239 384.698 40.8242C384.698 40.8244 384.698 40.8247 384.698 40.8249C384.698 40.8252 384.698 40.8254 384.698 40.8257C384.698 40.8259 384.698 40.8261 384.698 40.8264C384.698 40.8266 384.698 40.8269 384.698 40.8271C384.698 40.8274 384.698 40.8276 384.698 40.8279C384.698 40.8281 384.698 40.8284 384.698 40.8286C384.698 40.8288 384.698 40.8291 384.698 40.8293C384.698 40.8296 384.698 40.8298 384.698 40.83C384.698 40.8303 384.698 40.8305 384.698 40.8308C384.698 40.831 384.698 40.8312 384.698 40.8315C384.698 40.8317 384.698 40.8319 384.698 40.8322C384.698 40.8324 384.698 40.8327 384.698 40.8329C384.698 40.8331 384.698 40.8334 384.698 40.8336C384.698 40.8338 384.698 40.834 384.698 40.8343C384.698 40.8345 384.698 40.8347 384.698 40.835C384.698 40.8352 384.698 40.8354 384.698 40.8357C384.698 40.8359 384.698 40.8361 384.698 40.8363C384.698 40.8366 384.698 40.8368 384.698 40.837C384.698 40.8372 384.698 40.8375 384.698 40.8377C384.698 40.8379 384.698 40.8381 384.698 40.8384C384.698 40.8386 384.698 40.8388 384.698 40.839C384.698 40.8392 384.698 40.8395 384.698 40.8397C384.698 40.8399 384.698 40.8401 384.698 40.8403C384.698 40.8405 384.698 40.8408 384.698 40.841C384.698 40.8412 384.698 40.8414 384.698 40.8416C384.698 40.8418 384.698 40.842 384.698 40.8423C384.698 40.8425 384.698 40.8427 384.698 40.8429C384.698 40.8431 384.698 40.8433 384.698 40.8435C384.698 40.8437 384.698 40.8439 384.698 40.8441C384.698 40.8443 384.698 40.8446 384.698 40.8448C384.698 40.845 384.698 40.8452 384.698 40.8454C384.698 40.8456 384.698 40.8458 384.698 40.846C384.698 40.8462 384.698 40.8464 384.698 40.8466C384.698 40.8468 384.698 40.847 384.698 40.8472C384.698 40.8474 384.698 40.8476 384.698 40.8478C384.698 40.848 384.698 40.8482 384.698 40.8484C384.698 40.8486 384.698 40.8488 384.698 40.849C384.698 40.8492 384.698 40.8493 384.698 40.8495C384.698 40.8497 384.698 40.8499 384.698 40.8501C384.698 40.8503 384.698 40.8505 384.698 40.8507C384.698 40.8509 384.698 40.8511 384.698 40.8513C384.698 40.8514 384.698 40.8516 384.698 40.8518C384.698 40.852 384.698 40.8522 384.698 40.8524C384.698 40.8525 384.698 40.8527 384.698 40.8529C384.698 40.8531 384.698 40.8533 384.698 40.8535C384.698 40.8536 384.698 40.8538 384.698 40.854C384.698 40.8542 384.698 40.8544 384.698 40.8545C384.698 40.8547 384.698 40.8549 384.698 40.8551C384.698 40.8552 384.698 40.8554 384.698 40.8556C384.698 40.8558 384.698 40.8559 384.698 40.8561C384.698 40.8563 384.698 40.8564 384.698 40.8566C384.698 40.8568 384.698 40.857 384.698 40.8571C384.698 40.8573 384.698 40.8575 384.698 40.8576C384.698 40.8578 384.698 40.858 384.698 40.8581C384.698 40.8583 384.698 40.8585 384.698 40.8586C384.698 40.8588 384.698 40.8589 384.698 40.8591C384.698 40.8593 384.698 40.8594 384.698 40.8596C384.698 40.8597 384.698 40.8599 384.698 40.8601C384.698 40.8602 384.698 40.8604 384.698 40.8605C384.698 40.8607 384.698 40.8608 384.698 40.861C384.698 40.8611 384.698 40.8613 384.698 40.8615C384.698 40.8616 384.698 40.8618 384.698 40.8619C384.698 40.8621 384.698 40.8622 384.698 40.8624C384.698 40.8625 384.698 40.8626 384.698 40.8628C384.698 40.8629 384.698 40.8631 384.698 40.8632C384.698 40.8634 384.698 40.8635 384.698 40.8637C384.698 40.8638 384.698 40.8639 384.698 40.8641C384.698 40.8642 384.698 40.8644 384.698 40.8645C384.698 40.8646 384.698 40.8648 384.698 40.8649C384.698 40.8651 384.698 40.8652 384.698 40.8653C384.698 40.8655 384.698 40.8656 384.698 40.8657C384.698 40.8659 384.698 40.866 384.698 40.8661C384.698 40.8663 384.698 40.8664 384.698 40.8665C384.698 40.8667 384.698 40.8668 384.698 40.8669C384.698 40.867 384.698 40.8672 384.698 40.8673C384.698 40.8674 384.698 40.8675 384.698 40.8677C384.698 40.8678 384.698 40.8679 384.698 40.868C384.698 40.8682 384.698 40.8683 384.698 40.8684C384.698 40.8685 384.698 40.8686 384.698 40.8688C384.698 40.8689 384.698 40.869 384.698 40.8691C384.698 40.8692 384.698 40.8693 384.698 40.8695C384.698 40.8696 384.698 40.8697 384.698 40.8698C384.698 40.8699 384.698 40.87 384.698 40.8701C384.698 40.8702 384.698 40.8703 384.698 40.8705C384.698 40.8706 384.698 40.8707 384.698 40.8708C384.698 40.8709 384.698 40.871 384.698 40.8711C384.698 40.8712 384.698 40.8713 384.698 40.8714C384.698 40.8715 384.698 40.8716 384.698 40.8717C384.698 40.8718 384.698 40.8719 384.698 40.872C384.698 40.8721 384.698 40.8722 384.698 40.8723C384.698 40.8724 384.698 40.8725 384.698 40.8726C384.698 40.8727 384.698 40.8728 384.698 40.8729C384.698 40.8729 384.698 40.873 384.698 40.8731C384.698 40.8732 384.698 40.8733 384.698 40.8734C384.698 40.8735 384.698 40.8736 384.698 40.8737C384.698 40.8737 384.698 40.8738 384.698 40.8739C384.698 40.874 384.698 40.8741 384.698 40.8742C384.698 40.8742 384.698 40.8743 384.698 40.8744C384.698 40.8745 384.698 40.8746 384.698 40.8746C384.698 40.8747 384.698 40.8748 384.698 40.8749C384.698 40.8749 384.698 40.875 384.698 40.8751C384.698 40.8752 384.698 40.8752 384.698 40.8753C384.698 40.8754 384.698 40.8754 384.698 40.8755C384.698 40.8756 384.698 40.8756 384.698 40.8757C384.698 40.8758 384.698 40.8758 384.698 40.8759C384.698 40.876 384.698 40.876 384.698 40.8761C384.698 40.8762 384.698 40.8762 384.698 40.8763C384.698 40.8763 384.698 40.8764 384.698 40.8765C384.698 40.8765 384.698 40.8766 384.698 40.8766C384.698 40.8767 384.698 40.8768 384.698 40.8768C384.698 40.8769 384.698 40.8769 384.698 40.877C384.698 40.877 384.698 40.8771 384.698 40.8771C384.698 40.8772 384.698 40.8772 384.698 40.8773C384.698 40.8773 384.698 40.8774 384.698 40.8774C384.698 40.8774 384.698 40.8775 384.698 40.8775C384.698 40.8776 384.698 40.8776 384.698 40.8777C384.698 40.8777 384.698 40.8777 384.698 40.8778C384.698 40.8778 384.698 40.8779 384.698 40.8779C384.698 40.8779 384.698 40.878 384.698 40.878C384.698 40.878 384.698 40.8781 384.698 40.8781C384.698 40.8781 384.698 40.8782 384.698 40.8782C384.698 40.8782 384.698 40.8782 384.698 40.8783C384.698 40.8783 384.698 40.8783 384.698 40.8784C384.698 40.8784 384.698 40.8784 384.698 40.8784C384.698 40.8784 384.698 40.8785 384.698 40.8785C384.698 40.8785 384.698 40.8785 384.698 40.8786C384.698 40.8786 384.698 40.8786 384.698 40.8786C384.698 40.8786 384.698 40.8786 384.698 40.8786C384.698 40.8787 384.698 40.8787 384.698 40.8787C384.698 40.8787 384.698 40.8787 384.698 40.8787C384.698 40.8787 384.698 40.8787 384.698 40.8787C384.698 40.8787 384.698 40.8788 384.698 40.8788C384.698 40.8788 384.698 40.8788 384.698 40.8788C384.698 40.8788 384.698 40.8788 385.698 40.8788C386.698 40.8788 386.698 40.8788 386.698 40.8788C386.698 40.8788 386.698 40.8788 386.698 40.8788C386.698 40.8788 386.698 40.8787 386.698 40.8787C386.698 40.8787 386.698 40.8787 386.698 40.8787C386.698 40.8787 386.698 40.8787 386.698 40.8787C386.698 40.8787 386.698 40.8787 386.698 40.8786C386.698 40.8786 386.698 40.8786 386.698 40.8786C386.698 40.8786 386.698 40.8786 386.698 40.8786C386.698 40.8785 386.698 40.8785 386.698 40.8785C386.698 40.8785 386.698 40.8784 386.698 40.8784C386.698 40.8784 386.698 40.8784 386.698 40.8784C386.698 40.8783 386.698 40.8783 386.698 40.8783C386.698 40.8782 386.698 40.8782 386.698 40.8782C386.698 40.8782 386.698 40.8781 386.698 40.8781C386.698 40.8781 386.698 40.878 386.698 40.878C386.698 40.878 386.698 40.8779 386.698 40.8779C386.698 40.8779 386.698 40.8778 386.698 40.8778C386.698 40.8777 386.698 40.8777 386.698 40.8777C386.698 40.8776 386.698 40.8776 386.698 40.8775C386.698 40.8775 386.698 40.8774 386.698 40.8774C386.698 40.8774 386.698 40.8773 386.698 40.8773C386.698 40.8772 386.698 40.8772 386.698 40.8771C386.698 40.8771 386.698 40.877 386.698 40.877C386.698 40.8769 386.698 40.8769 386.698 40.8768C386.698 40.8768 386.698 40.8767 386.698 40.8766C386.698 40.8766 386.698 40.8765 386.698 40.8765C386.698 40.8764 386.698 40.8763 386.698 40.8763C386.698 40.8762 386.698 40.8762 386.698 40.8761C386.698 40.876 386.698 40.876 386.698 40.8759C386.698 40.8758 386.698 40.8758 386.698 40.8757C386.698 40.8756 386.698 40.8756 386.698 40.8755C386.698 40.8754 386.698 40.8754 386.698 40.8753C386.698 40.8752 386.698 40.8752 386.698 40.8751C386.698 40.875 386.698 40.8749 386.698 40.8749C386.698 40.8748 386.698 40.8747 386.698 40.8746C386.698 40.8746 386.698 40.8745 386.698 40.8744C386.698 40.8743 386.698 40.8742 386.698 40.8742C386.698 40.8741 386.698 40.874 386.698 40.8739C386.698 40.8738 386.698 40.8737 386.698 40.8737C386.698 40.8736 386.698 40.8735 386.698 40.8734C386.698 40.8733 386.698 40.8732 386.698 40.8731C386.698 40.873 386.698 40.8729 386.698 40.8729C386.698 40.8728 386.698 40.8727 386.698 40.8726C386.698 40.8725 386.698 40.8724 386.698 40.8723C386.698 40.8722 386.698 40.8721 386.698 40.872C386.698 40.8719 386.698 40.8718 386.698 40.8717C386.698 40.8716 386.698 40.8715 386.698 40.8714C386.698 40.8713 386.698 40.8712 386.698 40.8711C386.698 40.871 386.698 40.8709 386.698 40.8708C386.698 40.8707 386.698 40.8706 386.698 40.8705C386.698 40.8703 386.698 40.8702 386.698 40.8701C386.698 40.87 386.698 40.8699 386.698 40.8698C386.698 40.8697 386.698 40.8696 386.698 40.8695C386.698 40.8693 386.698 40.8692 386.698 40.8691C386.698 40.869 386.698 40.8689 386.698 40.8688C386.698 40.8686 386.698 40.8685 386.698 40.8684C386.698 40.8683 386.698 40.8682 386.698 40.868C386.698 40.8679 386.698 40.8678 386.698 40.8677C386.698 40.8675 386.698 40.8674 386.698 40.8673C386.698 40.8672 386.698 40.867 386.698 40.8669C386.698 40.8668 386.698 40.8667 386.698 40.8665C386.698 40.8664 386.698 40.8663 386.698 40.8661C386.698 40.866 386.698 40.8659 386.698 40.8657C386.698 40.8656 386.698 40.8655 386.698 40.8653C386.698 40.8652 386.698 40.8651 386.698 40.8649C386.698 40.8648 386.698 40.8646 386.698 40.8645C386.698 40.8644 386.698 40.8642 386.698 40.8641C386.698 40.8639 386.698 40.8638 386.698 40.8637C386.698 40.8635 386.698 40.8634 386.698 40.8632C386.698 40.8631 386.698 40.8629 386.698 40.8628C386.698 40.8626 386.698 40.8625 386.698 40.8624C386.698 40.8622 386.698 40.8621 386.698 40.8619C386.698 40.8618 386.698 40.8616 386.698 40.8615C386.698 40.8613 386.698 40.8611 386.698 40.861C386.698 40.8608 386.698 40.8607 386.698 40.8605C386.698 40.8604 386.698 40.8602 386.698 40.8601C386.698 40.8599 386.698 40.8597 386.698 40.8596C386.698 40.8594 386.698 40.8593 386.698 40.8591C386.698 40.8589 386.698 40.8588 386.698 40.8586C386.698 40.8585 386.698 40.8583 386.698 40.8581C386.698 40.858 386.698 40.8578 386.698 40.8576C386.698 40.8575 386.698 40.8573 386.698 40.8571C386.698 40.857 386.698 40.8568 386.698 40.8566C386.698 40.8564 386.698 40.8563 386.698 40.8561C386.698 40.8559 386.698 40.8558 386.698 40.8556C386.698 40.8554 386.698 40.8552 386.698 40.8551C386.698 40.8549 386.698 40.8547 386.698 40.8545C386.698 40.8544 386.698 40.8542 386.698 40.854C386.698 40.8538 386.698 40.8536 386.698 40.8535C386.698 40.8533 386.698 40.8531 386.698 40.8529C386.698 40.8527 386.698 40.8525 386.698 40.8524C386.698 40.8522 386.698 40.852 386.698 40.8518C386.698 40.8516 386.698 40.8514 386.698 40.8513C386.698 40.8511 386.698 40.8509 386.698 40.8507C386.698 40.8505 386.698 40.8503 386.698 40.8501C386.698 40.8499 386.698 40.8497 386.698 40.8495C386.698 40.8493 386.698 40.8492 386.698 40.849C386.698 40.8488 386.698 40.8486 386.698 40.8484C386.698 40.8482 386.698 40.848 386.698 40.8478C386.698 40.8476 386.698 40.8474 386.698 40.8472C386.698 40.847 386.698 40.8468 386.698 40.8466C386.698 40.8464 386.698 40.8462 386.698 40.846C386.698 40.8458 386.698 40.8456 386.698 40.8454C386.698 40.8452 386.698 40.845 386.698 40.8448C386.698 40.8446 386.698 40.8443 386.698 40.8441C386.698 40.8439 386.698 40.8437 386.698 40.8435C386.698 40.8433 386.698 40.8431 386.698 40.8429C386.698 40.8427 386.698 40.8425 386.698 40.8423C386.698 40.842 386.698 40.8418 386.698 40.8416C386.698 40.8414 386.698 40.8412 386.698 40.841C386.698 40.8408 386.698 40.8405 386.698 40.8403C386.698 40.8401 386.698 40.8399 386.698 40.8397C386.698 40.8395 386.698 40.8392 386.698 40.839C386.698 40.8388 386.698 40.8386 386.698 40.8384C386.698 40.8381 386.698 40.8379 386.698 40.8377C386.698 40.8375 386.698 40.8372 386.698 40.837C386.698 40.8368 386.698 40.8366 386.698 40.8363C386.698 40.8361 386.698 40.8359 386.698 40.8357C386.698 40.8354 386.698 40.8352 386.698 40.835C386.698 40.8347 386.698 40.8345 386.698 40.8343C386.698 40.834 386.698 40.8338 386.698 40.8336C386.698 40.8334 386.698 40.8331 386.698 40.8329C386.698 40.8327 386.698 40.8324 386.698 40.8322C386.698 40.8319 386.698 40.8317 386.698 40.8315C386.698 40.8312 386.698 40.831 386.698 40.8308C386.698 40.8305 386.698 40.8303 386.698 40.83C386.698 40.8298 386.698 40.8296 386.698 40.8293C386.698 40.8291 386.698 40.8288 386.698 40.8286C386.698 40.8284 386.698 40.8281 386.698 40.8279C386.698 40.8276 386.698 40.8274 386.698 40.8271C386.698 40.8269 386.698 40.8266 386.698 40.8264C386.698 40.8261 386.698 40.8259 386.698 40.8257C386.698 40.8254 386.698 40.8252 386.698 40.8249C386.698 40.8247 386.698 40.8244 386.698 40.8242C386.698 40.8239 386.698 40.8236 386.698 40.8234C386.698 40.8231 386.698 40.8229 386.698 40.8226C386.698 40.8224 386.698 40.8221 386.698 40.8219C386.698 40.8216 386.698 40.8214 386.698 40.8211C386.698 40.8208 386.698 40.8206 386.698 40.8203C386.698 40.8201 386.698 40.8198 386.698 40.8196C386.698 40.8193 386.698 40.819 386.698 40.8188C386.698 40.8185 386.698 40.8182 386.698 40.818C386.698 40.8177 386.698 40.8175 386.698 40.8172C386.698 40.8169 386.698 40.8167 386.698 40.8164C386.698 40.8161 386.698 40.8159 386.698 40.8156C386.698 40.8153 386.698 40.8151 386.698 40.8148C386.698 40.8145 386.698 40.8143 386.698 40.814C386.698 40.8137 386.698 40.8135 386.698 40.8132C386.698 40.8129 386.698 40.8126 386.698 40.8124C386.698 40.8121 386.698 40.8118 386.698 40.8116C386.698 40.8113 386.698 40.811 386.698 40.8107C386.698 40.8105 386.698 40.8102 386.698 40.8099C386.698 40.8096 386.698 40.8094 386.698 40.8091C386.698 40.8088 386.698 40.8085 386.698 40.8083C386.698 40.808 386.698 40.8077 386.698 40.8074C386.698 40.8071 386.698 40.8069 386.698 40.8066C386.698 40.8063 386.698 40.806 386.698 40.8057C386.698 40.8054 386.698 40.8052 386.698 40.8049C386.698 40.8046 386.698 40.8043 386.698 40.804C386.698 40.8037 386.698 40.8035 386.698 40.8032C386.698 40.8029 386.698 40.8026 386.698 40.8023C386.698 40.802 386.698 40.8017 386.698 40.8015C386.698 40.8012 386.698 40.8009 386.698 40.8006C386.698 40.8003 386.698 40.8 386.698 40.7997C386.698 40.7994 386.698 40.7991 386.698 40.7988C386.698 40.7985 386.698 40.7983 386.698 40.798C386.698 40.7977 386.698 40.7974 386.698 40.7971C386.698 40.7968 386.698 40.7965 386.698 40.7962C386.698 40.7959 386.698 40.7956 386.698 40.7953C386.698 40.795 386.698 40.7947 386.698 40.7944C386.698 40.7941 386.698 40.7938 386.698 40.7935C386.698 40.7932 386.698 40.7929 386.698 40.7926C386.698 40.7923 386.698 40.792 386.698 40.7917C386.698 40.7914 386.698 40.7911 386.698 40.7908C386.698 40.7905 386.698 40.7902 386.698 40.7899C386.698 40.7896 386.698 40.7893 386.698 40.789C386.698 40.7887 386.698 40.7884 386.698 40.7881C386.698 40.7878 386.698 40.7875 386.698 40.7872C386.698 40.7868 386.698 40.7865 386.698 40.7862C386.698 40.7859 386.698 40.7856 386.698 40.7853C386.698 40.785 386.698 40.7847 386.698 40.7844C386.698 40.7841 386.698 40.7838 386.698 40.7834C386.698 40.7831 386.698 40.7828 386.698 40.7825C386.698 40.7822 386.698 40.7819 386.698 40.7816C386.698 40.7813 386.698 40.7809 386.698 40.7806C386.698 40.7803 386.698 40.78 386.698 40.7797C386.698 40.7794 386.698 40.7791 386.698 40.7787C386.698 40.7784 386.698 40.7781 386.698 40.7778C386.698 40.7775 386.698 40.7771 386.698 40.7768C386.698 40.7765 386.698 40.7762 386.698 40.7759C386.698 40.7755 386.698 40.7752 386.698 40.7749C386.698 40.7746 386.698 40.7743 386.698 40.7739C386.698 40.7736 386.698 40.7733 386.698 40.773C386.698 40.7727 386.698 40.7723 386.698 40.772C386.698 40.7717 386.698 40.7714 386.698 40.771C386.698 40.7707 386.698 40.7704 386.698 40.7701C386.698 40.7697 386.698 40.7694 386.698 40.7691C386.698 40.7687 386.698 40.7684 386.698 40.7681C386.698 40.7678 386.698 40.7674 386.698 40.7671C386.698 40.7668 386.698 40.7664 386.698 40.7661C386.698 40.7658 386.698 40.7655 386.698 40.7651C386.698 40.7648 386.698 40.7645 386.698 40.7641C386.698 40.7638 386.698 40.7635 386.698 40.7631C386.698 40.7628 386.698 40.7625 386.698 40.7621C386.698 40.7618 386.698 40.7615 386.698 40.7611C386.698 40.7608 386.698 40.7605 386.698 40.7601C386.698 40.7598 386.698 40.7595 386.698 40.7591C386.698 40.7588 386.698 40.7584 386.698 40.7581C386.698 40.7578 386.698 40.7574 386.698 40.7571C386.698 40.7568 386.698 40.7564 386.698 40.7561C386.698 40.7557 386.698 40.7554 386.698 40.7551C386.698 40.7547 386.698 40.7544 386.698 40.754C386.698 40.7537 386.698 40.7534 386.698 40.753C386.698 40.7527 386.698 40.7523 386.698 40.752C386.698 40.7516 386.698 40.7513 386.698 40.751C386.698 40.7506 386.698 40.7503 386.698 40.7499C386.698 40.7496 386.698 40.7492 386.698 40.7489C386.698 40.7485 386.698 40.7482 386.698 40.7479C386.698 40.7475 386.698 40.7472 386.698 40.7468C386.698 40.7465 386.698 40.7461 386.698 40.7458C386.698 40.7454 386.698 40.7451 386.698 40.7447C386.698 40.7444 386.698 40.744 386.698 40.7437C386.698 40.7433 386.698 40.743 386.698 40.7426C386.698 40.7423 386.698 40.7419 386.698 40.7416C386.698 40.7412 386.698 40.7409 386.698 40.7405C386.698 40.7402 386.698 40.7398 386.698 40.7395C386.698 40.7391 386.698 40.7388 386.698 40.7384C386.698 40.7381 386.698 40.7377 386.698 40.7373C386.698 40.737 386.698 40.7366 386.698 40.7363C386.698 40.7359 386.698 40.7356 386.698 40.7352C386.698 40.7349 386.698 40.7345 386.698 40.7341C386.698 40.7338 386.698 40.7334 386.698 40.7331C386.698 40.7327 386.698 40.7324 386.698 40.732C386.698 40.7316 386.698 40.7313 386.698 40.7309C386.698 40.7306 386.698 40.7302 386.698 40.7298C386.698 40.7295 386.698 40.7291 386.698 40.7288C386.698 40.7284 386.698 40.728 386.698 40.7277C386.698 40.7273 386.698 40.727 386.698 40.7266C386.698 40.7262 386.698 40.7259 386.698 40.7255C386.698 40.7252 386.698 40.7248 386.698 40.7244C386.698 40.7241 386.698 40.7237 386.698 40.7233C386.698 40.723 386.698 40.7226 386.698 40.7222C386.698 40.7219 386.698 40.7215 386.698 40.7211C386.698 40.7208 386.698 40.7204 386.698 40.7201C386.698 40.7197 386.698 40.7193 386.698 40.719C386.698 40.7186 386.698 40.7182 386.698 40.7179C386.698 40.7175 386.698 40.7171 386.698 40.7168C386.698 40.7164 386.698 40.716 386.698 40.7156C386.698 40.7153 386.698 40.7149 386.698 40.7145C386.698 40.7142 386.698 40.7138 386.698 40.7134C386.698 40.7131 386.698 40.7127 386.698 40.7123C386.698 40.712 386.698 40.7116 386.698 40.7112C386.698 40.7108 386.698 40.7105 386.698 40.7101C386.698 40.7097 386.698 40.7094 386.698 40.709C386.698 40.7086 386.698 40.7082 386.698 40.7079C386.698 40.7075 386.698 40.7071 386.698 40.7067C386.698 40.7064 386.698 40.706 386.698 40.7056C386.698 40.7052 386.698 40.7049 386.698 40.7045C386.698 40.7041 386.698 40.7038 386.698 40.7034C386.698 40.703 386.698 40.7026 386.698 40.7023C386.698 40.7019 386.698 40.7015 386.698 40.7011C386.698 40.7007 386.698 40.7004 386.698 40.7C386.698 40.6996 386.698 40.6992 386.698 40.6989C386.698 40.6985 386.698 40.6981 386.698 40.6977C386.698 40.6974 386.698 40.697 386.698 40.6966C386.698 40.6962 386.698 40.6958 386.698 40.6955C386.698 40.6951 386.698 40.6947 386.698 40.6943C386.698 40.6939 386.698 40.6936 386.698 40.6932C386.698 40.6928 386.698 40.6924 386.698 40.692C386.698 40.6917 386.698 40.6913 386.698 40.6909C386.698 40.6905 386.698 40.6901 386.698 40.6898C386.698 40.6894 386.698 40.689 386.698 40.6886C386.698 40.6882 386.698 40.6879 386.698 40.6875C386.698 40.6871 386.698 40.6867 386.698 40.6863C386.698 40.6859 386.698 40.6856 386.698 40.6852C386.698 40.6848 386.698 40.6844 386.698 40.684C386.698 40.6836 386.698 40.6833 386.698 40.6829C386.698 40.6825 386.698 40.6821 386.698 40.6817C386.698 40.6813 386.698 40.6809 386.698 40.6806C386.698 40.6802 386.698 40.6798 386.698 40.6794C386.698 40.679 386.698 40.6786 386.698 40.6783C386.698 40.6779 386.698 40.6775 386.698 40.6771C386.698 40.6767 386.698 40.6763 386.698 40.6759C386.698 40.6755 386.698 40.6752 386.698 40.6748C386.698 40.6744 386.698 40.674 386.698 40.6736C386.698 40.6732 386.698 40.6728 386.698 40.6724C386.698 40.6721 386.698 40.6717 386.698 40.6713C386.698 40.6709 386.698 40.6705 386.698 40.6701C386.698 40.6697 386.698 40.6693 386.698 40.669C386.698 40.6686 386.698 40.6682 386.698 40.6678C386.698 40.6674 386.698 40.667 386.698 40.6666C386.698 40.6662 386.698 40.6658 386.698 40.6655C386.698 40.6651 386.698 40.6647 386.698 40.6643C386.698 40.6639 386.698 40.6635 386.698 40.6631C386.698 40.6627 386.698 40.6623 386.698 40.6619C386.698 40.6615 386.698 40.6612 386.698 40.6608C386.698 40.6604 386.698 40.66 386.698 40.6596C386.698 40.6592 386.698 40.6588 386.698 40.6584C386.698 40.658 386.698 40.6576 386.698 40.6572C386.698 40.6568 386.698 40.6565 386.698 40.6561C386.698 40.6557 386.698 40.6553 386.698 40.6549C386.698 40.6545 386.698 40.6541 386.698 40.6537C386.698 40.6533 386.698 40.6529 386.698 40.6525C386.698 40.6521 386.698 40.6517 386.698 40.6513C386.698 40.651 386.698 40.6506 386.698 40.6502C386.698 40.6498 386.698 40.6494 386.698 40.649C386.698 40.6486 386.698 40.6482 386.698 40.6478C386.698 40.6474 386.698 40.647 386.698 40.6466C386.698 40.6462 386.698 40.6458 386.698 40.6454C386.698 40.645 386.698 40.6446 386.698 40.6443C386.698 40.6439 386.698 40.6435 386.698 40.6431C386.698 40.6427 386.698 40.6423 386.698 40.6419C386.698 40.6415 386.698 40.6411 386.698 40.6407C386.698 40.6403 386.698 40.6399 386.698 40.6395C386.698 40.6391 386.698 40.6387 386.698 40.6383C386.698 40.6379 386.698 40.6375 386.698 40.6371C386.698 40.6367 386.698 40.6363 386.698 40.6359C386.698 40.6355 386.698 40.6352 386.698 40.6348C386.698 40.6344 386.698 40.634 386.698 40.6336C386.698 40.6332 386.698 40.6328 386.698 40.6324C386.698 40.632 386.698 40.6316 386.698 40.6312C386.698 40.6308 386.698 40.6304 386.698 40.63C386.698 40.6296 386.698 40.6292 386.698 40.6288C386.698 40.6284 386.698 40.628 386.698 40.6276C386.698 40.6272 386.698 40.6268 386.698 40.6264C386.698 40.626 386.698 40.6256 386.698 40.6252C386.698 40.6248 386.698 40.6244 386.698 40.624C386.698 40.6236 386.698 40.6232 386.698 40.6228C386.698 40.6224 386.698 40.6221 386.698 40.6217C386.698 40.6213 386.698 40.6209 386.698 40.6205C386.698 40.6201 386.698 40.6197 386.698 40.6193C386.698 40.6189 386.698 40.6185 386.698 40.6181C386.698 40.6177 386.698 40.6173 386.698 40.6169C386.698 40.6165 386.698 40.6161 386.698 40.6157C386.698 40.6153 386.698 40.6149 386.698 40.6145C386.698 40.6141 386.698 40.6137 386.698 40.6133C386.698 40.6129 386.698 40.6125 386.698 40.6121C386.698 40.6117 386.698 40.6113 386.698 40.6109C386.698 40.6105 386.698 40.6101 386.698 40.6097C386.698 40.6093 386.698 40.6089 386.698 40.6085C386.698 40.6081 386.698 40.6077 386.698 40.6073C386.698 40.6069 386.698 40.6065 386.698 40.6061C386.698 40.6057 386.698 40.6053 386.698 40.6049C386.698 40.6045 386.698 40.6041 386.698 40.6037C386.698 40.6033 386.698 40.6029 386.698 40.6025C386.698 40.6021 386.698 40.6017 386.698 40.6014C386.698 40.601 386.698 40.6006 386.698 40.6002C386.698 40.5998 386.698 40.5994 386.698 40.599C386.698 40.5986 386.698 40.5982 386.698 40.5978C386.698 40.5974 386.698 40.597 386.698 40.5966C386.698 40.5962 386.698 40.5958 386.698 40.5954C386.698 40.595 386.698 40.5946 386.698 40.5942C386.698 40.5938 386.698 40.5934 386.698 40.593C386.698 40.5926 386.698 40.5922 386.698 40.5918C386.698 40.5914 386.698 40.591 386.698 40.5906C386.698 40.5902 386.698 40.5898 386.698 40.5894C386.698 40.589 386.698 40.5886 386.698 40.5882C386.698 40.5878 386.698 40.5874 386.698 40.587C386.698 40.5866 386.698 40.5862 386.698 40.5858C386.698 40.5854 386.698 40.585 386.698 40.5846C386.698 40.5843 386.698 40.5839 386.698 40.5835C386.698 40.5831 386.698 40.5827 386.698 40.5823C386.698 40.5819 386.698 40.5815 386.698 40.5811C386.698 40.5807 386.698 40.5803 386.698 40.5799C386.698 40.5795 386.698 40.5791 386.698 40.5787C386.698 40.5783 386.698 40.5779 386.698 40.5775C386.698 40.5771 386.698 40.5767 386.698 40.5763C386.698 40.5759 386.698 40.5755 386.698 40.5751C386.698 40.5747 386.698 40.5743 386.698 40.5739C386.698 40.5736 386.698 40.5732 386.698 40.5728C386.698 40.5724 386.698 40.572 386.698 40.5716C386.698 40.5712 386.698 40.5708 386.698 40.5704C386.698 40.57 386.698 40.5696 386.698 40.5692C386.698 40.5688 386.698 40.5684 386.698 40.568C386.698 40.5676 386.698 40.5672 386.698 40.5668C386.698 40.5664 386.698 40.566 386.698 40.5657C386.698 40.5653 386.698 40.5649 386.698 40.5645C386.698 40.5641 386.698 40.5637 386.698 40.5633C386.698 40.5629 386.698 40.5625 386.698 40.5621C386.698 40.5617 386.698 40.5613 386.698 40.5609C386.698 40.5605 386.698 40.5601 386.698 40.5598C386.698 40.5594 386.698 40.559 386.698 40.5586C386.698 40.5582 386.698 40.5578 386.698 40.5574C386.698 40.557 386.698 40.5566 386.698 40.5562C386.698 40.5558 386.698 40.5554 386.698 40.555C386.698 40.5547 386.698 40.5543 386.698 40.5539C386.698 40.5535 386.698 40.5531 386.698 40.5527C386.698 40.5523 386.698 40.5519 386.698 40.5515C386.698 40.5511 386.698 40.5507 386.698 40.5504C386.698 40.55 386.698 40.5496 386.698 40.5492C386.698 40.5488 386.698 40.5484 386.698 40.548C386.698 40.5476 386.698 40.5472 386.698 40.5468C386.698 40.5465 386.698 40.5461 386.698 40.5457C386.698 40.5453 386.698 40.5449 386.698 40.5445C386.698 40.5441 386.698 40.5437 386.698 40.5433C386.698 40.543 386.698 40.5426 386.698 40.5422C386.698 40.5418 386.698 40.5414 386.698 40.541C386.698 40.5406 386.698 40.5402 386.698 40.5399C386.698 40.5395 386.698 40.5391 386.698 40.5387C386.698 40.5383 386.698 40.5379 386.698 40.5375C386.698 40.5371 386.698 40.5368 386.698 40.5364C386.698 40.536 386.698 40.5356 386.698 40.5352C386.698 40.5348 386.698 40.5344 386.698 40.5341C386.698 40.5337 386.698 40.5333 386.698 40.5329C386.698 40.5325 386.698 40.5321 386.698 40.5317C386.698 40.5314 386.698 40.531 386.698 40.5306C386.698 40.5302 386.698 40.5298 386.698 40.5294C386.698 40.5291 386.698 40.5287 386.698 40.5283C386.698 40.5279 386.698 40.5275 386.698 40.5271C386.698 40.5268 386.698 40.5264 386.698 40.526C386.698 40.5256 386.698 40.5252 386.698 40.5249C386.698 40.5245 386.698 40.5241 386.698 40.5237C386.698 40.5233 386.698 40.5229 386.698 40.5226C386.698 40.5222 386.698 40.5218 386.698 40.5214C386.698 40.521 386.698 40.5207 386.698 40.5203C386.698 40.5199 386.698 40.5195 386.698 40.5191C386.698 40.5188 386.698 40.5184 386.698 40.518C386.698 40.5176 386.698 40.5173 386.698 40.5169C386.698 40.5165 386.698 40.5161 386.698 40.5157C386.698 40.5154 386.698 40.515 386.698 40.5146C386.698 40.5142 386.698 40.5139 386.698 40.5135C386.698 40.5131 386.698 40.5127 386.698 40.5124C386.698 40.512 386.698 40.5116 386.698 40.5112C386.698 40.5108 386.698 40.5105 386.698 40.5101C386.698 40.5097 386.698 40.5094 386.698 40.509C386.698 40.5086 386.698 40.5082 386.698 40.5079C386.698 40.5075 386.698 40.5071 386.698 40.5067C386.698 40.5064 386.698 40.506 386.698 40.5056C386.698 40.5052 386.698 40.5049 386.698 40.5045C386.698 40.5041 386.698 40.5038 386.698 40.5034C386.698 40.503 386.698 40.5026 386.698 40.5023C386.698 40.5019 386.698 40.5015 386.698 40.5012C386.698 40.5008 386.698 40.5004 386.698 40.5C386.698 40.4997 386.698 40.4993 386.698 40.4989C386.698 40.4986 386.698 40.4982 386.698 40.4978C386.698 40.4975 386.698 40.4971 386.698 40.4967C386.698 40.4964 386.698 40.496 386.698 40.4956C386.698 40.4953 386.698 40.4949 386.698 40.4945C386.698 40.4942 386.698 40.4938 386.698 40.4934C386.698 40.4931 386.698 40.4927 386.698 40.4923C386.698 40.492 386.698 40.4916 386.698 40.4912C386.698 40.4909 386.698 40.4905 386.698 40.4902C386.698 40.4898 386.698 40.4894 386.698 40.4891C386.698 40.4887 386.698 40.4883 386.698 40.488C386.698 40.4876 386.698 40.4873 386.698 40.4869C386.698 40.4865 386.698 40.4862 386.698 40.4858C386.698 40.4854 386.698 40.4851 386.698 40.4847C386.698 40.4844 386.698 40.484 386.698 40.4836C386.698 40.4833 386.698 40.4829 386.698 40.4826C386.698 40.4822 386.698 40.4819 386.698 40.4815C386.698 40.4811 386.698 40.4808 386.698 40.4804C386.698 40.4801 386.698 40.4797 386.698 40.4794C386.698 40.479 386.698 40.4786 386.698 40.4783C386.698 40.4779 386.698 40.4776 386.698 40.4772C386.698 40.4769 386.698 40.4765 386.698 40.4762C386.698 40.4758 386.698 40.4754 386.698 40.4751C386.698 40.4747 386.698 40.4744 386.698 40.474C386.698 40.4737 386.698 40.4733 386.698 40.473C386.698 40.4726 386.698 40.4723 386.698 40.4719C386.698 40.4716 386.698 40.4712 386.698 40.4709C386.698 40.4705 386.698 40.4702 386.698 40.4698C386.698 40.4695 386.698 40.4691 386.698 40.4688C386.698 40.4684 386.698 40.4681 386.698 40.4677C386.698 40.4674 386.698 40.467 386.698 40.4667C386.698 40.4663 386.698 40.466 386.698 40.4657C386.698 40.4653 386.698 40.465 386.698 40.4646C386.698 40.4643 386.698 40.4639 386.698 40.4636C386.698 40.4632 386.698 40.4629 386.698 40.4626C386.698 40.4622 386.698 40.4619 386.698 40.4615C386.698 40.4612 386.698 40.4608 386.698 40.4605C386.698 40.4602 386.698 40.4598 386.698 40.4595C386.698 40.4591 386.698 40.4588 386.698 40.4585C386.698 40.4581 386.698 40.4578 386.698 40.4574C386.698 40.4571 386.698 40.4568 386.698 40.4564C386.698 40.4561 386.698 40.4557 386.698 40.4554C386.698 40.4551 386.698 40.4547 386.698 40.4544C386.698 40.4541 386.698 40.4537 386.698 40.4534C386.698 40.4531 386.698 40.4527 386.698 40.4524C386.698 40.452 386.698 40.4517 386.698 40.4514C386.698 40.451 386.698 40.4507 386.698 40.4504C386.698 40.4501 386.698 40.4497 386.698 40.4494C386.698 40.4491 386.698 40.4487 386.698 40.4484C386.698 40.4481 386.698 40.4477 386.698 40.4474C386.698 40.4471 386.698 40.4467 386.698 40.4464C386.698 40.4461 386.698 40.4458 386.698 40.4454C386.698 40.4451 386.698 40.4448 386.698 40.4445C386.698 40.4441 386.698 40.4438 386.698 40.4435C386.698 40.4431 386.698 40.4428 386.698 40.4425C386.698 40.4422 386.698 40.4418 386.698 40.4415C386.698 40.4412 386.698 40.4409 386.698 40.4406C386.698 40.4402 386.698 40.4399 386.698 40.4396C386.698 40.4393 386.698 40.4389 386.698 40.4386C386.698 40.4383 386.698 40.438 386.698 40.4377C386.698 40.4373 386.698 40.437 386.698 40.4367C386.698 40.4364 386.698 40.4361 386.698 40.4358C386.698 40.4354 386.698 40.4351 386.698 40.4348C386.698 40.4345 386.698 40.4342 386.698 40.4339C386.698 40.4335 386.698 40.4332 386.698 40.4329C386.698 40.4326 386.698 40.4323 386.698 40.432C386.698 40.4317 386.698 40.4313 386.698 40.431C386.698 40.4307 386.698 40.4304 386.698 40.4301C386.698 40.4298 386.698 40.4295 386.698 40.4292C386.698 40.4289 386.698 40.4285 386.698 40.4282C386.698 40.4279 386.698 40.4276 386.698 40.4273C386.698 40.427 386.698 40.4267 386.698 40.4264C386.698 40.4261 386.698 40.4258 386.698 40.4255C386.698 40.4252 386.698 40.4249 386.698 40.4246C386.698 40.4243 386.698 40.4239 386.698 40.4236C386.698 40.4233 386.698 40.423 386.698 40.4227C386.698 40.4224 386.698 40.4221 386.698 40.4218C386.698 40.4215 386.698 40.4212 386.698 40.4209C386.698 40.4206 386.698 40.4203 386.698 40.42H384.698ZM384.698 40.8788V61.5219H386.698V40.8788H384.698ZM385.698 60.5219H384.781V62.5219H385.698V60.5219ZM385.781 61.5219C385.781 53.2558 384.167 47.7184 380.258 44.3109C376.387 40.9368 370.51 39.8788 362.608 39.8788V41.8788C370.457 41.8788 375.666 42.9615 378.944 45.8186C382.183 48.6423 383.781 53.4265 383.781 61.5219H385.781ZM362.608 39.8788H349.458V41.8788H362.608V39.8788ZM348.458 40.8788V146.388H350.458V40.8788H348.458ZM349.458 147.388H353.892V145.388H349.458V147.388ZM352.892 146.388V147H354.892V146.388H352.892ZM353.892 146H339.824V148H353.892V146ZM340.824 147V146.388H338.824V147H340.824ZM339.824 147.388H344.259V145.388H339.824V147.388ZM345.259 146.388V40.8788H343.259V146.388H345.259ZM344.259 39.8788H331.261V41.8788H344.259V39.8788ZM331.261 39.8788C323.36 39.8788 317.483 40.9368 313.612 44.3109C309.703 47.7184 308.089 53.2558 308.089 61.5219H310.089C310.089 53.4265 311.687 48.6423 314.926 45.8186C318.204 42.9615 323.413 41.8788 331.261 41.8788V39.8788ZM309.089 60.5219H308.172V62.5219H309.089V60.5219ZM309.172 61.5219V39.9613H307.172V61.5219H309.172ZM308.172 40.9613H385.698V38.9613H308.172V40.9613ZM398.065 146.388H397.065V147.388H398.065V146.388ZM402.499 146.388H403.499V145.388H402.499V146.388ZM402.499 147V148H403.499V147H402.499ZM388.737 147H387.737V148H388.737V147ZM388.737 146.388V145.388H387.737V146.388H388.737ZM393.172 146.388V147.388H394.172V146.388H393.172ZM393.172 71.1554H394.172V70.1554H393.172V71.1554ZM388.737 71.1554H387.737V72.1554H388.737V71.1554ZM388.737 70.5438V69.5438H387.737V70.5438H388.737ZM398.065 70.5438H399.065V69.5438H398.065V70.5438ZM395.465 66.3326C394.03 66.3326 392.796 65.0983 392.796 63.6627H390.796C390.796 66.2029 392.925 68.3326 395.465 68.3326V66.3326ZM392.796 63.6627C392.796 62.4072 394.002 61.1457 395.465 61.1457V59.1457C392.953 59.1457 390.796 61.2484 390.796 63.6627H392.796ZM395.465 61.1457C396.929 61.1457 398.135 62.4072 398.135 63.6627H400.135C400.135 61.2484 397.978 59.1457 395.465 59.1457V61.1457ZM398.135 63.6627C398.135 65.0983 396.901 66.3326 395.465 66.3326V68.3326C398.006 68.3326 400.135 66.2029 400.135 63.6627H398.135ZM398.065 147.388H402.499V145.388H398.065V147.388ZM401.499 146.388V147H403.499V146.388H401.499ZM402.499 146H388.737V148H402.499V146ZM389.737 147V146.388H387.737V147H389.737ZM388.737 147.388H393.172V145.388H388.737V147.388ZM394.172 146.388V71.1554H392.172V146.388H394.172ZM393.172 70.1554H388.737V72.1554H393.172V70.1554ZM389.737 71.1554V70.5438H387.737V71.1554H389.737ZM388.737 71.5438H398.065V69.5438H388.737V71.5438ZM397.065 70.5438V146.388H399.065V70.5438H397.065ZM494.993 146.388H495.993V145.388H494.993V146.388ZM494.993 147V148H495.993V147H494.993ZM481.078 147H480.078V148H481.078V147ZM481.078 146.388V145.388H480.078V146.388H481.078ZM485.513 146.388V147.388H486.513V146.388H485.513ZM452.943 146.388H451.943V147.388H452.943V146.388ZM457.224 146.388H458.224V145.388H457.224V146.388ZM457.224 147V148H458.224V147H457.224ZM443.309 147H442.309V148H443.309V147ZM443.309 146.388V145.388H442.309V146.388H443.309ZM447.744 146.388V147.388H448.744V146.388H447.744ZM415.173 146.388H414.173V147.388H415.173V146.388ZM419.608 146.388H420.608V145.388H419.608V146.388ZM419.608 147V148H420.608V147H419.608ZM405.54 147H404.54V148H405.54V147ZM405.54 146.388V145.388H404.54V146.388H405.54ZM409.974 146.388V147.388H410.974V146.388H409.974ZM409.974 71.1554H410.974V70.1554H409.974V71.1554ZM405.54 71.1554H404.54V72.1554H405.54V71.1554ZM405.54 70.5438V69.5438H404.54V70.5438H405.54ZM415.173 70.5438H416.173V69.5438H415.173V70.5438ZM415.173 78.0365H414.173V80.7172L415.929 78.6914L415.173 78.0365ZM450.649 81.4006L449.751 81.8401L450.58 83.5358L451.517 81.8967L450.649 81.4006ZM490.559 146.388H489.559V147.388H490.559V146.388ZM493.993 146.388V147H495.993V146.388H493.993ZM494.993 146H481.078V148H494.993V146ZM482.078 147V146.388H480.078V147H482.078ZM481.078 147.388H485.513V145.388H481.078V147.388ZM486.513 146.388V87.3642H484.513V146.388H486.513ZM486.513 87.3642C486.513 82.2477 484.83 77.9269 481.786 74.8828C478.741 71.8387 474.421 70.1554 469.304 70.1554V72.1554C473.974 72.1554 477.758 73.6834 480.371 76.297C482.985 78.9106 484.513 82.6942 484.513 87.3642H486.513ZM469.304 70.1554C464.189 70.1554 459.832 71.838 456.751 74.8781C453.668 77.9196 451.943 82.2409 451.943 87.3642H453.943C453.943 82.701 455.504 78.9179 458.156 76.3017C460.809 73.6841 464.633 72.1554 469.304 72.1554V70.1554ZM451.943 87.3642V146.388H453.943V87.3642H451.943ZM452.943 147.388H457.224V145.388H452.943V147.388ZM456.224 146.388V147H458.224V146.388H456.224ZM457.224 146H443.309V148H457.224V146ZM444.309 147V146.388H442.309V147H444.309ZM443.309 147.388H447.744V145.388H443.309V147.388ZM448.744 146.388V87.3642H446.744V146.388H448.744ZM448.744 87.3642C448.744 82.2477 447.06 77.9269 444.016 74.8828C440.972 71.8387 436.651 70.1554 431.535 70.1554V72.1554C436.205 72.1554 439.988 73.6834 442.602 76.297C445.216 78.9106 446.744 82.6942 446.744 87.3642H448.744ZM431.535 70.1554C426.419 70.1554 422.063 71.838 418.982 74.8781C415.899 77.9196 414.173 82.2409 414.173 87.3642H416.173C416.173 82.701 417.735 78.9179 420.386 76.3017C423.039 73.6841 426.864 72.1554 431.535 72.1554V70.1554ZM414.173 87.3642V146.388H416.173V87.3642H414.173ZM415.173 147.388H419.608V145.388H415.173V147.388ZM418.608 146.388V147H420.608V146.388H418.608ZM419.608 146H405.54V148H419.608V146ZM406.54 147V146.388H404.54V147H406.54ZM405.54 147.388H409.974V145.388H405.54V147.388ZM410.974 146.388V71.1554H408.974V146.388H410.974ZM409.974 70.1554H405.54V72.1554H409.974V70.1554ZM406.54 71.1554V70.5438H404.54V71.1554H406.54ZM405.54 71.5438H415.173V69.5438H405.54V71.5438ZM414.173 70.5438V78.0365H416.173V70.5438H414.173ZM415.929 78.6914C419.725 74.3118 425.264 71.5438 431.535 71.5438V69.5438C424.655 69.5438 418.573 72.5864 414.418 77.3816L415.929 78.6914ZM431.535 71.5438C439.65 71.5438 446.437 75.0681 449.751 81.8401L451.547 80.961C447.827 73.3593 440.24 69.5438 431.535 69.5438V71.5438ZM451.517 81.8967C455.02 75.7674 461.58 71.5438 469.304 71.5438V69.5438C460.82 69.5438 453.618 74.1891 449.781 80.9044L451.517 81.8967ZM469.304 71.5438C474.993 71.5438 480.045 73.2784 483.666 76.647C487.274 80.0042 489.559 85.075 489.559 91.9515H491.559C491.559 84.6072 489.103 78.9741 485.028 75.1827C480.965 71.4026 475.39 69.5438 469.304 69.5438V71.5438ZM489.559 91.9515V146.388H491.559V91.9515H489.559ZM490.559 147.388H494.993V145.388H490.559V147.388ZM499.581 91.9515L498.599 91.7603L498.597 91.7704L499.581 91.9515ZM543.925 91.9515L542.944 92.1427L542.946 92.1541L543.925 91.9515ZM545.455 105.408H546.455V105.392L546.454 105.376L545.455 105.408ZM503.404 106.478V105.478H502.404V106.478H503.404ZM504.933 130.18L503.944 130.33L503.946 130.34L503.947 130.349L504.933 130.18ZM538.726 130.18L539.712 130.349L539.713 130.34L539.715 130.332L538.726 130.18ZM539.95 118.558L540.949 118.598L540.95 118.578V118.558H539.95ZM544.996 118.711L545.987 118.843L545.996 118.778V118.711H544.996ZM543.925 125.592L544.905 125.796L544.906 125.788L543.925 125.592ZM499.581 125.592L498.599 125.783L498.602 125.796L499.581 125.592ZM503.404 105.867L502.404 105.842L502.378 106.867H503.404V105.867ZM540.256 105.867V106.867H541.28L541.255 105.843L540.256 105.867ZM538.726 87.3642L539.715 87.2158L539.714 87.2098L538.726 87.3642ZM504.933 87.3642L503.945 87.2098L503.943 87.2194L504.933 87.3642ZM499.052 109.231C499.052 103.474 499.506 97.8777 500.564 92.1327L498.597 91.7704C497.515 97.6467 497.052 103.366 497.052 109.231H499.052ZM500.562 92.1427C502.805 80.6324 510.181 71.5438 521.906 71.5438V69.5438C508.859 69.5438 500.944 79.7221 498.599 91.7603L500.562 92.1427ZM521.906 71.5438C533.467 71.5438 540.699 80.6176 542.944 92.1427L544.907 91.7603C542.565 79.7369 534.811 69.5438 521.906 69.5438V71.5438ZM542.946 92.1541C543.85 96.5243 544.304 100.748 544.455 105.44L546.454 105.376C546.3 100.587 545.836 96.2477 544.905 91.7489L542.946 92.1541ZM544.455 105.408C544.455 105.435 544.45 105.45 544.447 105.456C544.445 105.462 544.442 105.464 544.442 105.465C544.441 105.466 544.438 105.468 544.432 105.471C544.426 105.473 544.411 105.478 544.384 105.478V107.478C545.548 107.478 546.455 106.572 546.455 105.408H544.455ZM544.384 105.478H503.404V107.478H544.384V105.478ZM502.404 106.478V109.231H504.404V106.478H502.404ZM502.404 109.231C502.404 116.309 502.865 123.241 503.944 130.33L505.921 130.029C504.859 123.05 504.404 116.22 504.404 109.231H502.404ZM503.947 130.349C505.693 140.505 512.752 147.388 521.906 147.388V145.388C513.934 145.388 507.537 139.427 505.918 130.01L503.947 130.349ZM521.906 147.388C531.071 147.388 537.969 140.493 539.712 130.349L537.741 130.01C536.12 139.439 529.868 145.388 521.906 145.388V147.388ZM539.715 130.332C540.329 126.337 540.794 122.473 540.949 118.598L538.951 118.518C538.8 122.289 538.347 126.071 537.738 130.028L539.715 130.332ZM540.95 118.558C540.95 116.845 541.877 116.357 542.458 116.366C543.041 116.375 543.996 116.898 543.996 118.711H545.996C545.996 116.09 544.428 114.396 542.488 114.366C540.545 114.337 538.95 115.99 538.95 118.558H540.95ZM544.005 118.579C543.698 120.878 543.396 123.139 542.945 125.396L544.906 125.788C545.372 123.458 545.682 121.132 545.987 118.843L544.005 118.579ZM542.946 125.389C540.547 136.935 533.46 146 521.906 146V148C534.818 148 542.411 137.798 544.905 125.796L542.946 125.389ZM521.906 146C510.188 146 502.956 136.92 500.56 125.389L498.602 125.796C501.099 137.813 508.852 148 521.906 148V146ZM500.562 125.401C499.505 119.965 499.052 114.678 499.052 109.231H497.052C497.052 114.793 497.515 120.209 498.599 125.783L500.562 125.401ZM503.404 106.867H540.256V104.867H503.404V106.867ZM541.255 105.843C541.102 99.3861 540.64 93.3802 539.715 87.2158L537.738 87.5125C538.648 93.5811 539.104 99.5024 539.256 105.89L541.255 105.843ZM539.714 87.2098C538.125 77.0398 531.06 70.1554 521.906 70.1554V72.1554C529.879 72.1554 536.269 78.1157 537.738 87.5185L539.714 87.2098ZM521.906 70.1554C512.763 70.1554 505.536 77.028 503.945 87.2098L505.921 87.5185C507.388 78.1275 513.923 72.1554 521.906 72.1554V70.1554ZM503.943 87.2194C503.019 93.5343 502.558 99.6913 502.404 105.842L504.403 105.892C504.555 99.8088 505.011 93.7328 505.922 87.5089L503.943 87.2194ZM583.164 92.869L582.741 93.7753L582.754 93.7809L583.164 92.869ZM583.164 85.6821L582.256 85.2631L582.256 85.2631L583.164 85.6821ZM569.861 105.561L570.316 104.67L570.315 104.67L569.861 105.561ZM549.829 122.228L550.773 122.56L550.774 122.557L549.829 122.228ZM554.875 124.828L555.742 125.326L555.745 125.322L554.875 124.828ZM568.026 108.619L567.572 109.51L567.573 109.51L568.026 108.619ZM583.587 91.9628C583.141 91.7548 582.916 91.5363 582.793 91.3347C582.672 91.1344 582.593 90.8536 582.615 90.4142C582.661 89.4686 583.147 88.1063 584.072 86.1012L582.256 85.2631C581.347 87.2337 580.685 88.9296 580.617 90.3159C580.581 91.0424 580.704 91.7461 581.084 92.3724C581.463 92.9975 582.04 93.448 582.741 93.7752L583.587 91.9628ZM584.072 86.1012C585.67 82.6395 584.414 78.2964 581.77 74.9507C579.095 71.5666 574.81 68.9321 569.861 68.9321V70.9321C574.086 70.9321 577.829 73.1909 580.201 76.1909C582.602 79.2292 583.411 82.7611 582.256 85.2631L584.072 86.1012ZM569.861 68.9321C560.903 68.9321 551.735 75.0455 551.735 85.9879H553.735C553.735 76.4401 561.693 70.9321 569.861 70.9321V68.9321ZM551.735 85.9879C551.735 91.7364 554.062 95.8132 557.463 98.9727C560.815 102.086 565.231 104.326 569.407 106.452L570.315 104.67C566.08 102.514 561.933 100.395 558.825 97.5074C555.765 94.665 553.735 91.0963 553.735 85.9879H551.735ZM569.406 106.451C576.292 109.971 581.196 112.887 584.391 116.229C587.526 119.509 589.045 123.231 589.045 128.498H591.045C591.045 122.754 589.353 118.525 585.837 114.847C582.38 111.232 577.192 108.185 570.316 104.67L569.406 106.451ZM589.045 128.498C589.045 133.718 587.393 138.349 584.254 141.668C581.124 144.977 576.431 147.07 570.167 147.07V149.07C576.9 149.07 582.147 146.806 585.707 143.042C589.257 139.289 591.045 134.134 591.045 128.498H589.045ZM570.167 147.07C561.132 147.07 555.648 142.875 552.724 137.75C549.759 132.552 549.424 126.392 550.773 122.56L548.886 121.896C547.329 126.321 547.759 133.083 550.987 138.741C554.256 144.473 560.393 149.07 570.167 149.07V147.07ZM550.774 122.557C551.338 120.935 552.092 120.002 552.755 119.544C553.412 119.091 553.943 119.111 554.271 119.269C554.601 119.427 554.97 119.843 555.048 120.686C555.127 121.535 554.893 122.773 554.006 124.334L555.745 125.322C556.77 123.518 557.166 121.87 557.04 120.502C556.912 119.127 556.239 117.995 555.136 117.466C554.03 116.935 552.736 117.127 551.62 117.898C550.51 118.663 549.544 120.004 548.885 121.9L550.774 122.557ZM554.009 124.329C550.584 130.281 551.484 136.365 554.834 140.922C558.161 145.445 563.891 148.459 570.167 148.459V146.459C564.515 146.459 559.388 143.738 556.446 139.737C553.527 135.768 552.744 130.537 555.742 125.326L554.009 124.329ZM570.167 148.459C579.097 148.459 586.611 140.848 586.611 128.651H584.611C584.611 140.001 577.751 146.459 570.167 146.459V148.459ZM586.611 128.651C586.611 123.055 584.321 118.944 580.892 115.675C577.503 112.444 572.979 110.016 568.479 107.728L567.573 109.51C572.095 111.81 576.363 114.121 579.512 117.122C582.619 120.084 584.611 123.695 584.611 128.651H586.611ZM568.48 107.728C564.384 105.642 559.739 103.408 556.09 100.203C552.483 97.036 549.912 92.9721 549.912 87.2112H547.912C547.912 93.6834 550.845 98.259 554.77 101.706C558.651 105.114 563.563 107.468 567.572 109.51L568.48 107.728ZM549.912 87.2112C549.912 81.5334 552.59 77.3453 556.439 74.5444C560.316 71.7232 565.378 70.3205 570.014 70.3205V68.3205C565.017 68.3205 559.528 69.8231 555.262 72.9273C550.968 76.0517 547.912 80.809 547.912 87.2112H549.912ZM570.014 70.3205C573.816 70.3205 578.298 71.9103 581.824 74.7963C585.333 77.6697 587.822 81.7626 587.822 86.7525H589.822C589.822 81.0385 586.959 76.4154 583.09 73.2488C579.238 70.0947 574.316 68.3205 570.014 68.3205V70.3205ZM587.822 86.7525C587.822 88.5462 587.231 90.1751 586.381 91.1669C585.961 91.6569 585.505 91.9615 585.056 92.0937C584.622 92.2214 584.132 92.2078 583.575 91.9571L582.754 93.7809C583.726 94.2183 584.707 94.2812 585.621 94.0123C586.519 93.7478 587.287 93.1827 587.899 92.4685C589.113 91.0519 589.822 88.9346 589.822 86.7525H587.822Z" fill="#185768"/>
</svg>
